<?xml version="1.0" standalone="no"?>
<!DOCTYPE svg PUBLIC "-//W3C//DTD SVG 20010904//EN"
 "http://www.w3.org/TR/2001/REC-SVG-20010904/DTD/svg10.dtd">
<svg version="1.0" xmlns="http://www.w3.org/2000/svg"
 width="901.000000pt" height="1600.000000pt" viewBox="0 0 901.000000 1600.000000"
 preserveAspectRatio="xMidYMid meet">

<g transform="translate(0.000000,1600.000000) scale(0.100000,-0.100000)"
fill="#000000" stroke="none">
<path d="M6010 15965 c-52 -18 -144 -54 -205 -80 -179 -75 -297 -120 -590
-224 -44 -16 -141 -52 -215 -81 -74 -28 -209 -78 -300 -110 -91 -32 -194 -71
-230 -86 -35 -14 -152 -57 -260 -94 -107 -37 -251 -88 -320 -113 -411 -148
-529 -191 -650 -235 -157 -57 -332 -121 -550 -199 -85 -31 -202 -74 -260 -95
-58 -22 -184 -68 -280 -103 -96 -34 -263 -95 -370 -135 -296 -109 -408 -149
-485 -171 -38 -12 -78 -25 -88 -31 -10 -5 -105 -41 -210 -79 -106 -38 -253
-92 -327 -119 -177 -65 -396 -142 -545 -192 -127 -43 -131 -45 -123 -53 3 -3
56 13 119 36 63 22 218 77 344 121 395 138 498 175 570 202 39 15 84 31 100
36 49 14 419 143 565 198 224 83 409 148 530 187 63 21 142 49 175 63 33 13
123 46 200 73 146 50 432 151 570 201 44 16 136 49 205 73 69 24 195 69 280
100 85 31 175 62 200 70 85 27 557 191 790 275 80 28 166 58 192 65 25 7 57
20 70 29 21 13 256 102 563 211 262 93 301 108 325 120 35 19 216 86 345 129
60 20 111 39 114 41 2 3 -31 5 -75 5 -64 -1 -98 -7 -174 -35z"/>
<path d="M8925 14274 c-27 -7 -198 -55 -380 -104 -181 -50 -384 -106 -450
-125 -124 -36 -467 -132 -520 -145 -16 -4 -131 -36 -255 -70 -340 -93 -714
-195 -813 -220 -123 -32 -123 -32 -102 -108 13 -47 16 -79 10 -138 -8 -86 -14
-84 -55 19 -28 72 -126 172 -206 211 -173 85 -430 70 -632 -36 -104 -55 -257
-172 -246 -189 3 -5 -3 -6 -13 -2 -10 3 -15 3 -11 -1 3 -4 -10 -23 -30 -42
-20 -19 -30 -34 -23 -34 6 0 10 -4 6 -10 -3 -5 -11 -7 -18 -4 -14 5 -51 -51
-43 -65 3 -5 -6 -20 -20 -34 -14 -14 -20 -27 -14 -29 6 -2 8 -11 5 -21 -4 -9
-10 -15 -15 -12 -4 2 -5 -7 -2 -20 2 -14 0 -25 -7 -25 -17 0 -1 -28 20 -33 23
-6 24 -26 4 -74 -16 -39 -21 -222 -6 -239 4 -5 16 -32 26 -60 19 -55 41 -91
50 -82 3 3 -3 33 -15 67 -50 150 -3 373 116 551 220 328 605 415 853 193 26
-23 60 -62 76 -87 35 -56 45 -52 16 6 -19 39 -35 61 -108 141 -13 15 -21 27
-15 27 5 0 17 -9 27 -20 10 -11 26 -22 36 -25 11 -4 19 -12 19 -18 0 -7 11
-25 25 -40 14 -15 23 -27 20 -27 -3 0 2 -15 11 -32 19 -36 22 -54 27 -172 3
-65 -1 -96 -24 -172 -24 -81 -89 -226 -89 -199 0 5 -9 -8 -21 -30 -12 -22 -30
-49 -40 -61 -10 -11 -19 -24 -20 -30 -1 -13 -97 -94 -112 -94 -8 0 -7 4 3 11
13 9 13 10 0 6 -8 -2 -15 -10 -15 -17 0 -8 -22 -22 -49 -32 -28 -9 -54 -24
-58 -32 -4 -8 -16 -12 -27 -9 -12 3 -24 -3 -33 -16 -10 -15 -21 -19 -34 -15
-14 4 -15 3 -5 -4 10 -7 6 -12 -17 -23 -17 -7 -29 -16 -27 -19 2 -3 -1 -12 -6
-20 -8 -13 -10 -13 -19 0 -6 10 -10 11 -10 3 0 -18 -20 -16 -43 5 -11 9 -17
12 -14 5 4 -6 2 -15 -4 -19 -8 -5 -10 1 -7 18 4 22 2 24 -21 20 -14 -3 -32
-10 -40 -16 -11 -8 -15 -8 -18 2 -3 7 -20 12 -41 11 l-37 -1 35 -10 c19 -5 49
-11 65 -13 17 -2 32 -4 35 -5 3 0 -4 -7 -14 -15 -11 -8 -14 -15 -8 -15 7 0 12
-5 12 -11 0 -7 -38 -9 -122 -6 -103 3 -133 8 -185 30 -35 14 -63 23 -63 21 0
-3 -14 4 -31 16 -16 12 -33 20 -35 17 -10 -10 65 -73 114 -97 26 -12 58 -33
72 -45 87 -78 246 -135 376 -135 104 0 360 184 470 337 45 63 134 236 134 260
0 8 9 38 21 66 12 29 24 61 29 72 4 11 15 37 24 58 21 49 21 63 -1 46 -15 -13
-16 -10 -9 31 4 24 14 52 23 62 9 10 19 45 22 80 11 108 20 -250 27 -1079 4
-425 9 -773 11 -773 14 0 231 205 226 213 -3 6 -1 7 6 3 7 -5 35 1 64 12 96
38 220 51 202 22 -3 -5 5 -11 17 -13 14 -3 8 -5 -15 -6 -25 -1 -36 -5 -31 -12
4 -6 -1 -10 -12 -8 -28 3 -56 -11 -81 -40 -27 -33 -20 -43 23 -35 38 7 47 -9
17 -32 -25 -19 -40 -17 -46 5 -4 19 -6 19 -68 1 -93 -27 -129 -41 -129 -51 0
-5 -5 -9 -10 -9 -6 0 -16 -4 -23 -10 -39 -32 -137 -100 -165 -114 -18 -9 -41
-25 -51 -34 -36 -34 -91 -82 -94 -82 -4 0 -40 -36 -146 -145 -24 -24 -47 -42
-51 -40 -5 3 -10 2 -12 -2 -1 -5 -30 -31 -63 -59 -48 -41 -70 -53 -110 -58
-117 -18 -230 -76 -287 -149 -34 -42 -35 -48 -44 -220 -6 -102 -4 -113 26
-206 17 -55 51 -134 75 -176 66 -115 205 -279 222 -261 5 4 8 47 8 96 0 72 3
92 19 109 11 12 25 21 31 21 7 0 23 9 36 19 17 14 21 23 13 30 -13 14 -69 -11
-84 -37 -19 -33 -10 6 15 62 14 31 31 56 39 56 23 0 36 24 47 86 17 96 61 115
176 73 107 -38 122 -49 116 -81 -9 -46 -26 -88 -66 -163 -63 -116 -88 -155
-100 -155 -7 0 -19 -11 -27 -24 -20 -32 -163 -142 -195 -150 -21 -5 -25 -11
-20 -29 12 -42 42 -72 131 -134 91 -64 120 -74 130 -48 7 17 35 20 51 4 8 -8
7 -24 -2 -57 -19 -72 -52 -131 -116 -202 -31 -36 -69 -92 -84 -125 -36 -82
-50 -95 -102 -95 -27 0 -63 -10 -93 -25 -26 -13 -68 -27 -92 -31 -24 -3 -55
-15 -70 -25 -15 -10 -40 -19 -56 -19 -16 0 -35 -6 -41 -14 -16 -19 -79 -27
-101 -14 -14 9 -22 9 -34 -1 -24 -20 -310 -17 -339 4 -12 8 -31 15 -42 15 -23
0 -23 0 9 990 8 245 15 481 15 525 0 44 5 251 10 460 6 209 15 627 22 929 6
302 14 558 18 570 6 15 2 25 -15 39 -13 10 -28 36 -34 59 -6 22 -14 37 -17 34
-9 -8 -32 47 -49 114 -19 79 -17 183 6 275 26 103 94 243 123 255 51 20 -43 9
-124 -15 -46 -13 -145 -42 -219 -64 -74 -22 -268 -76 -430 -121 -348 -95 -816
-226 -880 -245 -25 -7 -124 -34 -220 -60 -96 -26 -281 -75 -410 -110 -129 -35
-341 -91 -470 -125 -274 -72 -768 -206 -793 -216 -9 -3 -17 -14 -17 -23 0 -9
-3 -27 -7 -40 -5 -20 -3 -23 10 -18 26 10 36 -21 27 -83 -5 -30 -16 -147 -25
-259 -8 -111 -20 -233 -25 -270 -14 -97 -31 -263 -70 -676 -46 -480 -74 -750
-89 -860 -12 -90 -28 -254 -41 -430 -6 -77 -19 -205 -30 -285 -16 -124 -34
-286 -55 -495 -3 -27 -10 -90 -16 -140 -11 -96 -22 -207 -37 -372 -5 -55 -12
-105 -15 -110 -3 -4 -10 -62 -16 -128 -7 -66 -18 -169 -26 -230 -8 -60 -26
-207 -40 -325 -14 -118 -30 -249 -35 -290 -15 -109 -51 -455 -56 -528 -4 -69
-25 -245 -49 -417 -8 -60 -24 -180 -35 -265 -32 -246 -38 -264 -36 -119 0 70
4 125 8 123 3 -2 9 24 12 58 11 137 26 266 36 328 7 36 14 92 16 125 3 33 9
69 14 80 4 11 11 54 15 95 4 41 11 107 16 145 5 39 17 156 28 260 11 105 24
226 30 270 6 44 9 100 6 125 -4 35 -3 40 5 25 8 -15 9 -8 6 33 -3 28 -1 52 4
52 4 0 6 17 3 39 -3 21 0 62 7 92 6 30 15 107 20 173 5 65 13 123 18 128 11
11 4 48 -8 48 -4 0 -7 -10 -7 -22 1 -13 -7 -72 -16 -133 -15 -95 -61 -463
-112 -895 -8 -69 -26 -235 -40 -370 -14 -135 -34 -317 -45 -405 -11 -88 -29
-239 -40 -335 -11 -96 -27 -220 -35 -275 -18 -131 -31 -238 -50 -410 -34 -306
-46 -404 -60 -500 -8 -55 -21 -163 -30 -240 -26 -234 -18 -216 -87 -185 -45
20 -88 77 -88 116 0 41 -57 140 -106 182 -73 63 -118 82 -200 82 -45 0 -87 7
-122 20 -29 11 -61 20 -72 20 -20 0 -20 -10 -20 -1746 0 -1740 0 -1745 20
-1739 31 10 71 9 116 -4 47 -12 76 -38 53 -45 -42 -13 -150 -27 -168 -21 -21
6 -21 5 -21 -208 l0 -215 28 -10 c15 -6 35 -13 45 -16 32 -10 15 -40 -31 -54
l-42 -14 0 -227 c0 -163 3 -230 12 -239 9 -9 9 -15 0 -24 -7 -7 -12 -43 -12
-90 l0 -78 1043 0 c932 1 1040 2 1022 16 -11 8 -45 22 -75 30 -76 22 -89 36
-56 62 14 11 26 27 26 36 0 9 3 16 8 16 4 0 20 12 35 26 34 31 54 30 237 -11
63 -14 132 -29 153 -32 41 -6 40 -5 37 -85 -1 -45 1 -58 13 -58 9 0 17 14 21
40 3 22 11 40 16 40 6 0 10 -18 10 -40 0 -36 3 -40 24 -40 32 0 57 35 49 70
-5 25 -3 27 21 23 14 -3 26 -11 26 -19 0 -8 18 -15 46 -20 34 -5 48 -12 56
-30 l11 -23 438 -1 c257 0 439 3 439 9 0 5 17 12 37 16 28 5 38 3 45 -9 8 -14
146 -16 1418 -16 l1410 0 0 101 c0 184 -32 471 -70 633 -24 103 -91 301 -163
481 -30 77 -70 185 -87 240 -36 114 -41 129 -82 245 -30 85 -30 85 -29 300 1
135 7 254 17 320 20 139 61 328 79 365 15 31 52 168 65 240 4 22 19 92 33 155
22 99 42 231 98 650 7 53 19 95 31 113 15 21 19 41 17 80 -4 64 14 120 55 171
17 22 36 51 43 65 10 23 11 16 11 -49 0 -58 -2 -68 -9 -45 -10 36 -3 -853 11
-1565 6 -278 13 -680 16 -895 3 -214 7 -466 8 -560 2 -93 6 -352 10 -575 4
-223 7 -420 6 -437 l0 -33 1220 0 1220 0 0 6270 c0 5263 -2 6270 -14 6270 -7
0 -80 -15 -162 -34 -82 -19 -252 -58 -379 -86 -126 -28 -327 -74 -445 -100
-118 -27 -327 -74 -465 -105 -137 -31 -277 -63 -310 -71 -182 -46 -510 -113
-518 -105 -13 13 -29 881 -20 1011 l8 105 24 -27 c27 -31 51 -36 51 -12 0 25
39 74 59 74 10 0 40 12 66 26 40 23 54 26 101 20 53 -6 93 7 117 39 5 6 11 4
18 -7 12 -22 32 -23 49 -3 9 11 33 14 100 12 73 -1 92 1 108 16 13 12 28 16
44 12 17 -4 37 1 59 14 19 12 42 21 52 21 10 0 20 7 23 15 4 10 15 12 34 9 15
-4 31 -1 34 5 4 6 20 11 35 11 15 0 31 4 37 9 8 8 29 15 109 34 6 1 15 5 20 9
6 3 42 13 80 22 90 21 147 38 160 47 18 12 75 21 158 23 59 2 93 9 122 23 43
22 65 20 65 -4 0 -11 6 -14 23 -8 22 7 85 14 122 15 11 0 37 5 57 11 30 10 36
16 35 38 -2 24 1 26 44 26 26 0 53 7 64 15 13 11 42 15 101 15 52 0 88 5 96
13 6 6 18 12 25 12 10 0 13 61 13 305 0 345 9 316 -85 289z m-3735 -1024 c0
-5 -4 -10 -10 -10 -5 0 -10 5 -10 10 0 6 5 10 10 10 6 0 10 -4 10 -10z m-10
-95 c0 -12 -51 -117 -55 -113 -3 2 4 22 15 43 11 22 20 47 20 57 0 10 5 18 10
18 6 0 10 -2 10 -5z m-70 -92 c-11 -17 -11 -17 -6 0 3 10 6 24 7 30 0 9 2 9 5
0 3 -7 0 -20 -6 -30z m-1420 -493 c-8 -5 -24 -9 -35 -9 -16 1 -16 2 5 9 35 11
48 11 30 0z m-140 -36 c-19 -9 -111 -35 -205 -59 -93 -24 -314 -80 -490 -125
-176 -45 -419 -106 -540 -136 -121 -30 -260 -66 -310 -79 -49 -13 -129 -31
-176 -41 l-86 -17 -7 -81 c-4 -44 -18 -182 -31 -306 -43 -394 -65 -640 -65
-731 0 -37 -5 -70 -12 -77 -13 -13 -5 -15 29 -6 13 4 21 9 19 13 -2 3 20 7 50
8 29 1 90 11 136 22 102 24 151 34 298 61 63 12 147 28 185 37 92 20 420 88
565 118 108 22 310 65 480 101 41 9 100 23 130 31 30 8 65 16 77 18 11 2 30 6
41 9 11 4 69 15 129 26 59 10 173 32 253 48 80 16 179 35 220 42 41 6 83 16
92 21 26 13 39 11 54 -8 19 -26 17 -43 -5 -43 -22 0 -40 -20 -19 -21 7 0 4 -4
-7 -9 l-20 -9 20 -1 20 -1 -20 -9 c-29 -12 -37 -12 -29 3 6 9 4 9 -8 -1 -9 -7
-79 -26 -155 -42 -76 -15 -176 -37 -223 -48 -47 -12 -132 -30 -190 -42 -58
-12 -211 -44 -340 -72 -129 -27 -293 -63 -365 -78 -71 -15 -175 -37 -230 -48
-55 -12 -230 -47 -390 -77 -159 -31 -308 -60 -330 -65 -22 -5 -98 -21 -170
-36 -71 -14 -163 -35 -203 -45 -40 -10 -83 -19 -96 -19 -31 0 -33 -8 -41 -143
-4 -59 -12 -142 -19 -185 l-12 -77 -6 56 c-4 37 -2 70 7 95 20 55 18 67 -11
95 l-27 24 6 -23 c3 -12 1 -20 -4 -16 -5 3 -9 15 -9 28 0 12 -5 27 -10 32 -7
7 -7 47 0 125 6 63 14 180 20 261 5 82 11 156 14 166 6 18 13 81 41 382 28
307 35 375 39 400 3 14 8 59 12 102 6 72 8 76 33 81 27 5 235 54 261 62 48 14
256 71 385 104 83 22 186 49 229 61 44 11 111 27 150 35 39 8 116 24 171 35
62 13 113 18 135 14 20 -4 29 -9 20 -12 -78 -27 -81 -39 -5 -17 44 13 48 13
31 0 -24 -18 -8 -20 44 -5 19 6 89 21 155 35 66 14 165 36 220 49 117 29 143
31 95 10z m-225 -13 c-36 -15 -105 -28 -105 -21 0 8 73 27 105 28 l20 1 -20
-8z m-430 -212 c-28 -9 -287 -75 -473 -121 -46 -11 -85 -18 -88 -15 -3 2 8 7
23 11 15 3 141 35 278 70 138 36 259 65 270 65 13 -1 10 -4 -10 -10z m225 -79
c0 -5 -8 -10 -17 -10 -15 0 -16 2 -3 10 19 12 20 12 20 0z m-77 -16 c8 -3 13
-13 10 -24 -4 -15 3 -18 39 -22 23 -2 45 -1 48 3 9 13 77 14 92 2 7 -7 40 -11
72 -10 52 1 60 -2 78 -25 16 -22 23 -26 42 -18 32 12 194 12 201 0 3 -6 15
-10 25 -10 27 0 43 -36 37 -86 l-4 -42 34 5 c22 4 38 1 43 -6 4 -7 36 -15 71
-17 91 -7 109 -12 109 -31 0 -13 8 -15 43 -10 23 2 36 3 30 0 -27 -10 -11 -23
27 -23 22 0 40 -5 40 -10 0 -6 9 -20 19 -32 16 -17 18 -24 8 -39 -10 -16 -9
-21 3 -29 23 -15 50 -12 50 5 0 25 15 17 27 -16 7 -17 21 -33 32 -36 12 -3 21
-14 21 -24 0 -11 6 -19 14 -19 7 0 19 -6 25 -14 10 -12 8 -16 -10 -21 -26 -9
-79 -64 -79 -82 0 -7 9 -13 20 -13 11 0 20 6 20 13 1 32 16 40 54 26 47 -17
46 -29 -4 -29 -29 0 -40 -4 -40 -15 0 -12 13 -16 58 -16 143 0 163 -3 158 -21
-2 -10 0 -21 6 -24 14 -9 -83 -38 -207 -63 -55 -11 -149 -31 -210 -45 -60 -14
-218 -48 -350 -75 -132 -28 -343 -73 -470 -101 -225 -50 -564 -121 -855 -180
-80 -16 -210 -43 -290 -60 -80 -17 -182 -37 -227 -44 -45 -8 -87 -18 -94 -21
-7 -5 -9 -1 -6 11 8 27 33 221 52 404 9 85 20 184 25 220 20 136 38 336 33
370 -4 34 -3 36 36 48 22 6 50 12 61 12 23 0 103 17 145 32 17 6 53 14 80 19
41 7 207 42 300 64 11 2 29 9 40 14 24 11 196 51 221 51 9 0 40 6 68 14 129
37 204 50 229 40z m-760 -61 c-7 -2 -19 -2 -25 0 -7 3 -2 5 12 5 14 0 19 -2
13 -5z m2673 -240 c-3 -120 -6 -239 -6 -265 0 -28 -5 -48 -11 -48 -8 0 -9 45
-5 158 8 207 18 372 23 372 2 0 1 -98 -1 -217z m-2999 161 c-3 -3 -12 -4 -19
-1 -8 3 -5 6 6 6 11 1 17 -2 13 -5z m-180 -156 c-3 -7 -5 -2 -5 12 0 14 2 19
5 13 2 -7 2 -19 0 -25z m2383 -63 c0 -8 -7 -15 -15 -15 -9 0 -12 6 -9 15 4 8
10 15 15 15 5 0 9 -7 9 -15z m463 -80 c-7 -21 -13 -19 -13 6 0 11 4 18 10 14
5 -3 7 -12 3 -20z m2057 3 c0 -18 -2 -20 -9 -8 -6 8 -7 18 -5 22 9 14 14 9 14
-14z m-4926 -130 c-4 -51 -10 -82 -12 -68 -5 30 8 173 15 166 3 -3 2 -47 -3
-98z m4923 -20 c-2 -18 -4 -6 -4 27 0 33 2 48 4 33 2 -15 2 -42 0 -60z m-2052
12 c7 -21 0 -40 -14 -40 -11 0 -22 40 -15 52 9 14 22 9 29 -12z m-43 -54 c1
-33 5 -46 16 -46 7 0 16 9 19 20 3 11 12 20 20 20 8 0 11 5 7 11 -5 9 1 10 22
5 16 -4 31 -12 35 -17 7 -11 39 -1 39 12 0 5 5 9 11 9 5 0 8 -4 4 -9 -3 -6 3
-15 12 -21 16 -10 16 -11 1 -6 -10 3 -30 -1 -45 -9 -15 -8 -37 -15 -48 -15
-12 0 -25 -4 -30 -9 -6 -5 -38 -12 -71 -16 l-62 -7 6 29 c3 15 13 40 23 55 11
14 19 34 19 44 0 13 3 15 11 7 6 -6 11 -32 11 -57z m158 40 c0 -16 -18 -31
-27 -22 -8 8 5 36 17 36 5 0 10 -6 10 -14z m2290 -66 c0 -5 -6 -10 -14 -10 -8
0 -18 5 -21 10 -3 6 3 10 14 10 12 0 21 -4 21 -10z m103 -20 c5 -4 0 -10 -10
-14 -9 -4 -14 -4 -10 0 4 4 -5 14 -20 20 l-28 13 30 -6 c17 -3 34 -9 38 -13z
m-5402 -142 c-25 -253 -28 -276 -30 -228 -1 53 31 362 37 355 3 -2 -1 -60 -7
-127z m5522 108 c62 -28 44 -28 -35 0 -10 4 -18 11 -18 16 0 5 3 7 8 5 4 -2
24 -11 45 -21z m52 -56 c3 -5 -1 -10 -9 -10 -9 0 -16 5 -16 10 0 6 4 10 9 10
6 0 13 -4 16 -10z m-2359 -297 c-7 -287 -13 -490 -26 -873 -13 -357 -19 -575
-20 -677 0 -46 -4 -83 -9 -83 -9 0 -8 211 3 500 2 52 1 87 -1 77 -3 -9 -9 -15
-14 -11 -6 3 -8 51 -4 117 2 62 7 227 10 367 6 304 14 417 27 398 6 -8 8 40 4
129 -3 88 -2 144 4 148 6 3 10 40 10 81 0 45 4 74 11 74 7 0 9 -76 5 -247z
m2382 224 c3 -13 -4 -17 -28 -17 -17 0 -29 -4 -25 -9 3 -5 1 -12 -5 -16 -5 -3
-10 -15 -10 -26 0 -20 -30 -26 -64 -13 -29 11 -16 28 47 66 65 40 80 42 85 15z
m-2851 -23 c-3 -3 -12 -4 -19 -1 -8 3 -5 6 6 6 11 1 17 -2 13 -5z m2505 -57
c7 -13 3 -18 -17 -23 -15 -4 -31 -2 -38 5 -6 6 -19 11 -29 11 -26 0 -22 18 5
22 40 7 69 1 79 -15z m193 -57 c3 -5 -1 -10 -9 -10 -9 0 -16 5 -16 10 0 6 4
10 9 10 6 0 13 -4 16 -10z m75 0 c-8 -5 -24 -10 -35 -10 -17 0 -17 2 -5 10 8
5 24 10 35 10 17 0 17 -2 5 -10z m295 -45 c20 -9 24 -14 13 -14 -10 -1 -18 -8
-18 -16 0 -18 -2 -18 -34 -4 -33 15 -42 49 -13 49 12 -1 36 -7 52 -15z m-329
-55 c-3 -8 -21 -60 -41 -115 -20 -55 -41 -114 -46 -132 -6 -20 -20 -36 -39
-45 -27 -12 -34 -20 -32 -39 1 -4 -9 -7 -21 -7 -59 0 -187 -72 -187 -106 -1
-20 -1 -20 -11 -3 -6 10 -8 25 -5 33 4 9 -3 23 -16 34 l-23 19 38 -10 c36 -10
57 -6 57 10 0 5 -13 11 -30 15 -18 3 -30 12 -30 21 0 8 4 15 9 15 5 0 22 3 38
6 20 4 35 1 46 -10 19 -20 71 -12 63 9 -3 8 1 16 8 18 7 3 16 20 20 38 3 18
14 41 24 52 9 10 16 20 14 21 -8 3 11 56 20 56 6 0 7 -8 3 -17 -16 -40 -45
-137 -45 -149 0 -38 21 -2 67 119 28 72 53 140 57 150 3 9 16 22 28 27 19 8
16 9 -12 4 -19 -4 -38 -11 -41 -17 -4 -6 -16 -4 -30 7 -13 9 -19 16 -14 17 6
1 17 2 25 3 8 2 23 3 33 4 10 1 15 7 12 12 -4 6 10 3 30 -7 24 -12 35 -22 31
-33z m-5527 -104 c-9 -8 -10 -7 -5 7 3 10 7 33 8 50 1 28 2 28 5 -7 3 -22 -1
-43 -8 -50z m5409 26 c-7 -18 -16 -32 -20 -32 -11 0 -10 7 8 41 20 39 27 33
12 -9z m-798 -7 c0 -8 -7 -15 -16 -15 -9 0 -23 -8 -30 -17 -7 -10 -15 -15 -19
-11 -8 8 39 58 55 58 5 0 10 -7 10 -15z m-1393 -47 c-3 -8 -6 -5 -6 6 -1 11 2
17 5 13 3 -3 4 -12 1 -19z m-1697 2 c-8 -5 -24 -9 -35 -9 -16 1 -16 2 5 9 35
11 48 11 30 0z m3140 -9 c0 -12 -20 -25 -27 -18 -7 7 6 27 18 27 5 0 9 -4 9
-9z m-3217 -8 c-7 -2 -19 -2 -25 0 -7 3 -2 5 12 5 14 0 19 -2 13 -5z m-1446
-45 c-3 -7 -5 -2 -5 12 0 14 2 19 5 13 2 -7 2 -19 0 -25z m1352 28 c-5 -5
-208 -48 -374 -80 -178 -35 -201 -38 -194 -32 3 3 118 29 255 57 137 28 251
52 253 55 2 2 18 4 34 4 17 0 28 -2 26 -4z m3926 -6 c3 -5 1 -10 -4 -10 -6 0
-11 5 -11 10 0 6 2 10 4 10 3 0 8 -4 11 -10z m-785 -39 c0 -15 -28 -33 -40
-26 -8 5 -8 11 1 21 13 15 39 19 39 5z m-1456 -25 c9 3 16 2 17 -2 0 -5 2 -19
5 -32 2 -13 -3 -36 -11 -52 -14 -28 -27 -34 -80 -42 -12 -2 -20 -11 -20 -23 0
-22 -12 -35 -34 -35 -12 0 -12 66 1 173 2 17 43 35 55 24 7 -7 -19 -67 -29
-67 -5 0 -8 -7 -8 -16 0 -8 4 -13 9 -9 5 3 12 1 15 -4 4 -5 18 2 33 15 23 21
25 28 15 44 -7 11 -12 28 -12 37 1 17 1 17 14 0 8 -10 20 -15 30 -11z m126 4
c0 -5 -4 -10 -10 -10 -5 0 -10 5 -10 10 0 6 5 10 10 10 6 0 10 -4 10 -10z
m2094 -3 c10 -8 16 -22 14 -35 -3 -21 -4 -22 -25 -7 -13 9 -23 25 -23 36 0 22
9 24 34 6z m-5217 -3 c-3 -3 -12 -4 -19 -1 -8 3 -5 6 6 6 11 1 17 -2 13 -5z
m2802 -31 c-1 -17 -3 -21 -6 -10 -2 9 -8 17 -13 17 -4 0 -6 -9 -3 -20 4 -14
-2 -22 -21 -30 -30 -11 -32 -26 -11 -66 15 -30 19 -26 15 14 -1 12 3 22 8 22
6 0 8 -9 5 -20 -4 -14 0 -20 12 -20 13 0 16 6 13 25 -3 14 -1 23 6 22 6 -1 11
16 11 40 1 41 9 62 20 51 10 -9 14 -153 6 -167 -5 -8 -16 -11 -25 -8 -9 4 -16
3 -16 -2 0 -5 -12 -12 -27 -16 -21 -5 -24 -8 -12 -16 9 -6 3 -7 -20 -2 -20 3
-32 2 -28 -3 5 -8 -100 -35 -281 -73 -69 -14 -85 -14 -77 2 4 6 0 5 -7 -5 -15
-18 -115 -38 -104 -20 4 6 -2 8 -15 5 -16 -4 -17 -8 -7 -14 8 -5 8 -9 2 -9 -6
0 -27 -2 -45 -5 -29 -4 -30 -3 -9 4 41 15 -6 12 -70 -4 -36 -9 -47 -14 -30
-15 24 -2 23 -3 -5 -10 -16 -4 -39 -8 -50 -8 -16 0 -15 2 5 9 19 7 16 7 -15 3
-58 -7 -76 -14 -69 -25 3 -6 -14 -8 -48 -5 -37 4 -46 3 -28 -3 15 -5 18 -9 9
-10 -9 -1 -32 -4 -50 -7 -27 -5 -31 -3 -19 6 13 10 12 11 -3 6 -10 -3 -26 -6
-35 -7 -15 0 -14 -1 1 -8 17 -6 -108 -33 -423 -91 -153 -28 -177 -31 -160 -19
11 8 8 9 -15 4 -16 -4 -32 -10 -35 -15 -8 -13 -187 -41 -218 -34 -17 4 -22 2
-14 -3 8 -6 -34 -17 -120 -32 -73 -12 -190 -33 -260 -46 -70 -13 -135 -21
-145 -19 -16 4 -18 -4 -21 -87 -3 -70 -1 -90 9 -84 7 5 6 -3 -4 -21 -9 -16
-20 -63 -25 -104 l-10 -75 1 72 c1 39 -1 70 -4 68 -4 -3 -19 -110 -34 -250 -1
-16 -3 -33 -4 -37 -2 -12 -29 -9 -37 3 -3 6 -6 33 -5 60 0 27 -3 49 -8 49 -13
0 -21 -26 -21 -65 0 -19 -4 -37 -10 -40 -5 -3 -10 0 -10 9 0 8 -6 17 -12 19
-8 3 -6 6 5 6 18 1 24 27 6 33 -7 2 -7 12 1 33 6 16 10 45 9 65 -2 20 0 41 4
47 4 6 3 14 -3 18 -6 4 -6 12 -1 23 5 9 14 51 20 92 6 41 12 84 13 95 2 15 -3
20 -19 19 -13 0 -23 3 -23 8 0 4 5 8 10 8 6 0 13 8 17 18 3 9 19 28 35 42 36
32 50 90 22 90 -17 1 -17 2 -3 13 8 7 18 20 22 30 3 9 11 17 17 17 5 0 10 -8
10 -17 0 -14 5 -12 23 9 15 19 37 30 72 37 93 17 220 43 315 63 52 11 122 25
155 29 33 5 157 31 275 58 118 27 285 61 370 75 85 14 250 44 365 66 116 23
266 50 335 61 69 11 176 29 239 40 63 11 137 20 165 18 58 -3 106 8 121 26 8
10 23 18 43 24 1 1 1 -11 1 -26z m-2086 -20 c-7 -2 -19 -2 -25 0 -7 3 -2 5 12
5 14 0 19 -2 13 -5z m-118 -23 c-27 -12 -43 -12 -25 0 8 5 22 9 30 9 10 0 8
-3 -5 -9z m5055 0 c13 -8 13 -10 -2 -10 -9 0 -20 5 -23 10 -8 13 5 13 25 0z
m-221 -31 c-19 -12 -59 -11 -59 0 0 10 49 20 64 13 4 -3 2 -8 -5 -13z m-1184
1 c-49 -13 -115 -19 -115 -10 0 11 33 17 95 18 43 0 46 -1 20 -8z m1402 -36
c9 -24 -9 -34 -37 -19 -19 11 -21 14 -7 15 9 0 17 5 17 10 0 16 20 12 27 -6z
m-1550 0 c-3 -3 -12 -4 -19 -1 -8 3 -5 6 6 6 11 1 17 -2 13 -5z m1183 -24 c-8
-5 -24 -9 -35 -9 l-20 0 20 9 c11 5 27 9 35 9 13 1 13 0 0 -9z m-5400 -142
c-6 -68 -18 -172 -25 -233 -11 -87 -13 -95 -10 -35 13 210 33 405 42 397 3 -3
0 -61 -7 -129z m5110 122 c13 -8 13 -10 -2 -10 -9 0 -20 5 -23 10 -8 13 5 13
25 0z m320 -9 c0 -9 -29 -20 -68 -26 -13 -2 -20 0 -16 6 13 22 84 38 84 20z
m-2431 -418 c0 -68 -2 -123 -6 -123 -5 0 -8 -53 -7 -117 1 -109 1 -112 -6 -38
-5 66 -7 50 -8 -90 -1 -124 1 -166 9 -155 9 12 9 11 4 -5 -4 -11 -11 -36 -15
-55 -6 -26 -8 -12 -11 60 l-3 95 -6 -70 -6 -70 -2 95 c-1 52 2 90 6 84 4 -7 8
142 10 330 2 208 6 342 12 344 13 5 13 29 0 34 -6 2 -5 20 3 48 11 43 12 37
18 -100 4 -80 7 -200 8 -267z m159 366 c2 -23 2 -23 -13 -5 -18 24 -20 39 -2
34 6 -3 13 -15 15 -29z m-3111 -31 c-2 -13 -4 -5 -4 17 -1 22 1 32 4 23 2 -10
2 -28 0 -40z m5261 17 c-6 -14 -13 -23 -15 -21 -5 5 15 46 22 46 3 0 -1 -11
-7 -25z m77 -15 c0 -38 -3 -42 -40 -59 -22 -10 -53 -22 -70 -25 l-30 -6 23 19
c12 11 22 24 22 30 0 6 3 11 8 10 21 -3 50 16 66 42 9 16 18 29 19 29 1 0 2
-18 2 -40z m-245 10 c0 -5 -7 -7 -15 -4 -8 4 -15 8 -15 10 0 2 7 4 15 4 8 0
15 -4 15 -10z m-2029 -116 c-7 -56 -6 -82 1 -92 18 -21 28 5 28 73 0 67 13
102 25 66 9 -28 -4 -223 -16 -237 -6 -7 -6 -21 0 -36 7 -20 6 -24 -10 -24 -13
0 -19 7 -19 23 0 20 -3 21 -25 13 -14 -5 -25 -6 -26 -2 -4 41 5 170 12 184 6
11 11 38 11 61 0 36 14 64 26 53 1 -2 -2 -39 -7 -82z m961 46 c-36 -33 -50
-36 -77 -17 -16 13 -15 14 11 10 20 -3 38 2 54 16 39 32 49 24 12 -9z m-4131
-41 c-9 -23 -9 -22 -8 8 1 18 6 28 10 24 4 -4 3 -18 -2 -32z m96 -6 c-3 -10
-5 -4 -5 12 0 17 2 24 5 18 2 -7 2 -21 0 -30z m2210 31 c-3 -3 -12 -4 -19 -1
-8 3 -5 6 6 6 11 1 17 -2 13 -5z m3438 -14 c3 -5 2 -10 -4 -10 -5 0 -13 5 -16
10 -3 6 -2 10 4 10 5 0 13 -4 16 -10z m-358 -6 c-3 -3 -12 -4 -19 -1 -8 3 -5
6 6 6 11 1 17 -2 13 -5z m-3224 -11 c-7 -2 -19 -2 -25 0 -7 3 -2 5 12 5 14 0
19 -2 13 -5z m134 -9 c-3 -3 -12 -4 -19 -1 -8 3 -5 6 6 6 11 1 17 -2 13 -5z
m-50 -10 c-3 -3 -12 -4 -19 -1 -8 3 -5 6 6 6 11 1 17 -2 13 -5z m648 -19 c-3
-25 -41 -85 -53 -85 -4 0 -8 -118 -9 -263 -1 -144 -4 -261 -7 -259 -4 1 -10 2
-16 2 -5 0 -11 10 -11 23 -1 15 -4 10 -9 -13 l-7 -35 -2 33 c-1 21 -6 32 -16
32 -8 0 -15 -3 -15 -7 0 -5 -9 -38 -19 -74 -9 -36 -16 -81 -13 -100 3 -25 -2
-41 -14 -53 -13 -13 -14 -20 -5 -25 6 -4 13 -33 15 -65 3 -45 1 -56 -10 -52
-8 3 -14 -1 -14 -9 0 -8 9 -15 20 -15 11 0 20 -4 20 -10 0 -5 8 -10 19 -10 14
0 20 10 25 46 3 25 3 51 0 58 -3 6 1 3 9 -7 11 -14 16 -15 20 -5 3 7 6 -29 6
-80 1 -63 -2 -91 -9 -87 -7 4 -9 26 -6 53 3 26 3 39 0 30 -3 -9 -23 -25 -45
-34 -21 -10 -39 -21 -39 -26 0 -4 -4 -8 -10 -8 -15 0 -12 40 3 41 10 0 10 2 0
6 -7 2 -13 11 -13 19 0 8 -4 14 -10 14 -5 0 -7 12 -4 28 6 35 -10 62 -27 45
-16 -16 -36 5 -42 43 -4 29 -4 29 -6 -3 -1 -26 -5 -33 -21 -33 -12 0 -20 7
-20 18 -1 16 -1 16 -14 0 -12 -16 -15 -14 -31 22 -10 22 -21 40 -25 40 -4 0
-13 -13 -20 -30 -7 -16 -16 -27 -21 -24 -5 3 -9 -2 -9 -10 0 -9 7 -16 16 -16
13 0 15 -7 10 -33 -4 -21 -1 -40 8 -52 9 -12 12 -31 9 -47 -5 -28 11 -40 20
-15 4 9 7 9 18 0 15 -15 12 -18 -23 -27 -17 -4 -28 -2 -28 4 0 5 -4 10 -10 10
-5 0 -10 -7 -10 -15 0 -8 -7 -15 -15 -15 -8 0 -15 7 -15 15 0 8 5 15 10 15 6
0 10 5 10 10 0 6 -7 10 -15 10 -10 0 -15 10 -15 32 0 17 -3 29 -6 25 -3 -3 -6
-22 -6 -42 0 -25 -4 -35 -13 -31 -7 2 -25 -2 -40 -10 -15 -8 -34 -14 -41 -14
-8 0 -15 -8 -15 -17 -4 -55 -11 -92 -25 -130 -9 -23 -13 -47 -9 -53 4 -6 2
-16 -4 -23 -17 -21 -6 -52 20 -55 36 -4 213 -31 314 -48 50 -8 106 -18 125
-21 35 -5 54 -11 230 -77 58 -21 122 -37 165 -41 39 -3 91 -8 116 -11 l47 -6
6 -51 c4 -29 25 -99 48 -157 46 -122 57 -158 35 -121 -14 23 -18 24 -158 27
-89 2 -145 7 -147 13 -5 14 -35 14 -49 0 -13 -13 -153 -13 -167 1 -5 5 -19 10
-31 10 -11 0 -33 7 -49 15 -19 10 -44 14 -70 10 -34 -4 -46 -1 -68 19 -16 14
-28 29 -28 34 0 5 -11 14 -25 20 -14 6 -25 20 -25 29 0 14 -2 15 -9 4 -6 -9
-14 -10 -22 -5 -8 5 -32 10 -54 10 -87 3 -182 13 -225 23 -25 6 -58 11 -74 11
-16 0 -45 10 -64 22 -20 12 -45 23 -55 23 -11 1 -27 11 -36 22 -22 27 -76 63
-95 63 -8 0 -23 11 -32 25 -9 14 -21 25 -26 25 -27 0 -99 45 -143 89 -27 28
-56 51 -64 51 -7 0 -19 6 -25 13 -22 26 -200 59 -344 63 -75 2 -148 4 -162 4
-47 2 -140 -12 -140 -21 0 -12 -77 -11 -85 1 -3 5 -15 6 -29 1 -12 -5 -49 -12
-82 -16 -91 -10 -101 -13 -108 -37 -5 -23 -59 -61 -70 -50 -12 11 -6 60 9 72
8 7 15 19 15 26 0 8 5 14 11 14 6 0 16 6 23 13 16 16 4 37 -31 55 -19 10 -24
9 -37 -10 -14 -20 -16 -20 -22 -3 -4 10 1 32 12 53 27 51 168 197 204 212 28
12 38 10 108 -24 43 -20 81 -36 85 -36 4 0 49 -20 100 -44 106 -51 191 -81
268 -95 170 -31 231 -44 294 -62 39 -11 111 -30 162 -43 l91 -23 6 21 c9 34 7
73 -3 58 -7 -11 -10 -10 -15 3 -9 25 -7 103 3 110 6 3 9 14 8 25 -1 16 -9 20
-40 20 -21 0 -47 5 -57 10 -13 7 -27 6 -44 -2 -22 -9 -29 -8 -45 6 -23 21 -34
8 -25 -29 9 -35 -4 -31 -22 8 l-14 32 6 -37 c5 -29 3 -38 -8 -38 -18 0 -58 45
-58 65 0 22 -21 18 -27 -5 -3 -12 -14 -20 -25 -20 -19 0 -20 -5 -16 -50 5 -44
3 -50 -14 -50 -11 0 -17 4 -14 9 3 4 -3 16 -14 26 -11 10 -17 22 -14 26 3 5 1
9 -4 9 -15 0 -21 37 -8 50 8 8 7 13 -4 20 -8 5 -18 6 -22 4 -4 -3 -8 0 -8 5 0
6 -12 11 -26 11 -21 0 -25 4 -19 18 11 28 11 34 -1 39 -7 2 -19 -3 -28 -12 -9
-9 -16 -13 -16 -9 0 3 -6 2 -13 -4 -7 -6 -22 -10 -33 -8 -10 2 -13 1 -6 -1 16
-6 15 -28 -2 -42 -12 -10 -20 -7 -44 16 -16 15 -32 38 -36 49 -5 17 -14 22
-39 20 l-32 -1 2 48 c1 40 -1 46 -13 36 -8 -6 -14 -28 -14 -49 0 -54 -21 -67
-49 -30 -12 17 -28 30 -35 30 -18 0 -27 25 -15 37 7 7 6 19 -2 35 -11 25 -12
25 -38 10 -15 -8 -32 -25 -37 -36 -11 -25 -30 -19 -27 9 1 11 -1 27 -4 35 -4
11 -8 9 -16 -10 -10 -25 -10 -25 -16 10 l-6 35 -23 -25 c-22 -23 -22 -23 -37
-4 -18 24 -18 29 0 44 11 9 12 17 5 30 -6 10 -11 31 -11 47 -2 40 -17 -49 -18
-107 -1 -25 -6 -52 -12 -60 -11 -15 -8 103 7 291 6 82 6 86 -19 113 -27 29
-47 28 -47 -2 -1 -17 -23 -52 -33 -52 -9 0 4 103 14 114 7 8 50 18 129 30 64
10 312 57 370 70 36 8 164 31 285 50 121 20 256 43 300 51 44 8 109 19 145 25
109 17 220 37 350 63 160 32 281 52 298 49 8 -2 50 4 95 12 45 9 98 18 117 21
19 2 49 9 65 14 55 17 73 14 70 -14z m-2804 -21 c-5 -16 -10 -21 -10 -12 -1
18 10 51 15 45 2 -1 -1 -16 -5 -33z m2112 29 c-7 -2 -19 -2 -25 0 -7 3 -2 5
12 5 14 0 19 -2 13 -5z m3124 -10 c-3 -10 -12 -35 -21 -55 -14 -33 -14 -38 -1
-38 8 0 24 22 36 49 15 36 27 50 45 54 33 6 35 -1 14 -49 -16 -36 -24 -42 -66
-53 -27 -7 -57 -15 -66 -18 -26 -6 -22 20 6 46 14 13 30 36 36 52 13 32 25 40
17 12z m-3180 1 c-3 -3 -12 -4 -19 -1 -8 3 -5 6 6 6 11 1 17 -2 13 -5z m-72
-14 c-16 -4 -39 -8 -50 -8 -16 0 -15 2 5 8 14 4 36 8 50 8 22 0 22 -1 -5 -8z
m-100 -20 c-16 -4 -41 -8 -55 -8 -22 0 -22 1 5 8 17 4 41 8 55 8 22 0 22 -1
-5 -8z m1135 -100 l-7 -85 -1 95 c-1 51 2 90 6 85 4 -6 5 -48 2 -95z m-1221
86 c-6 -7 -277 -58 -324 -62 -38 -3 -38 -3 -10 6 77 24 348 69 334 56z m-1439
-46 c0 -5 -3 -10 -7 -10 -5 0 -18 -3 -30 -6 -13 -4 -23 -2 -23 4 0 10 19 18
48 21 6 0 12 -3 12 -9z m1040 -30 c-99 -21 -222 -41 -227 -37 -3 3 10 8 28 12
19 3 66 12 104 19 39 8 84 14 100 14 29 0 29 0 -5 -8z m3820 -4 c0 -2 -11 -6
-25 -8 -13 -3 -22 -1 -19 3 5 9 44 13 44 5z m-5301 -33 c0 -16 -3 -22 -6 -15
-2 6 -8 10 -13 7 -4 -3 -6 4 -3 15 8 29 23 24 22 -7z m415 2 c18 -13 18 -15 3
-15 -10 0 -20 -7 -23 -15 -9 -23 -24 -18 -24 8 0 39 13 45 44 22z m4902 -22
c-4 -16 -14 -33 -22 -39 -7 -6 -14 -23 -14 -37 0 -18 -8 -31 -27 -41 -16 -8
-22 -15 -15 -16 20 0 14 -14 -10 -25 -19 -8 -62 -107 -223 -510 -110 -275
-256 -637 -324 -805 -67 -168 -179 -444 -248 -615 -208 -515 -224 -557 -219
-562 13 -13 30 23 117 239 51 128 161 402 244 608 84 206 241 596 350 865 108
270 207 513 219 540 13 28 38 87 56 133 19 45 38 82 43 82 5 0 7 -6 4 -12 -33
-75 -77 -186 -117 -293 -26 -71 -77 -205 -114 -297 -36 -93 -96 -243 -132
-335 -213 -545 -288 -733 -305 -772 -11 -24 -18 -46 -15 -49 3 -3 12 10 20 29
7 19 45 111 83 204 39 94 107 262 152 375 46 113 89 219 96 235 7 17 86 212
175 435 203 511 196 494 211 499 7 2 10 -2 6 -10 -9 -21 -44 -110 -355 -889
-509 -1276 -552 -1384 -587 -1462 -33 -76 -33 -78 -12 -77 12 0 49 10 82 22
56 21 60 25 82 77 12 30 88 222 169 425 80 204 207 523 281 710 139 350 445
1126 456 1158 4 9 10 17 16 17 9 0 -48 -153 -212 -565 -52 -132 -143 -359
-200 -505 -58 -146 -194 -488 -302 -760 -109 -272 -200 -501 -202 -507 -7 -17
22 -16 55 1 15 7 68 28 117 46 217 78 378 146 603 251 46 21 85 39 87 39 2 0
39 16 82 36 43 20 89 38 102 41 14 2 51 13 83 24 31 10 67 19 78 19 11 0 20 4
20 8 0 5 35 6 78 4 42 -2 114 -4 160 -4 74 0 84 2 102 24 11 12 19 29 20 36 0
6 3 11 8 11 32 -5 11 24 -30 40 -23 10 -23 10 -1 10 12 1 24 -3 27 -8 6 -8 23
-13 111 -27 22 -3 45 -10 50 -14 6 -4 27 -10 48 -14 26 -5 53 -22 88 -55 27
-26 49 -53 49 -59 0 -6 -12 -19 -27 -29 -16 -10 -32 -23 -36 -31 -5 -7 -26
-20 -48 -28 -21 -9 -39 -20 -39 -24 0 -5 -25 -14 -55 -21 -42 -9 -55 -16 -55
-31 0 -15 -8 -18 -56 -18 -36 0 -61 5 -70 15 -9 8 -26 15 -39 15 -13 0 -30 -7
-39 -15 -17 -17 -36 -20 -36 -5 0 6 -18 10 -40 10 -22 0 -40 -3 -40 -8 0 -4
-34 -13 -76 -20 -42 -6 -82 -16 -88 -21 -6 -5 -26 -12 -43 -16 -18 -3 -33 -10
-33 -15 0 -4 -17 -10 -39 -14 -45 -7 -127 -50 -135 -71 -3 -9 -19 -15 -42 -15
-21 0 -46 -8 -61 -20 -14 -11 -33 -20 -41 -20 -23 0 -82 -23 -82 -32 0 -4 -9
-8 -20 -8 -11 0 -28 -8 -38 -18 -10 -10 -47 -24 -83 -32 -35 -7 -69 -17 -75
-22 -7 -5 -16 -8 -20 -7 -5 1 -11 1 -14 -1 -3 -1 -14 -3 -26 -5 -11 -3 -34
-11 -50 -20 -16 -8 -35 -15 -42 -15 -15 0 -54 -21 -64 -34 -4 -6 -25 -9 -47
-8 -23 2 -41 -2 -41 -7 0 -6 -19 -23 -42 -37 -24 -15 -49 -35 -56 -46 -11 -14
-17 -16 -33 -7 -28 14 -166 -15 -194 -41 -12 -11 -29 -20 -38 -20 -19 0 -61
-25 -89 -52 -10 -10 -29 -20 -43 -24 -14 -3 -25 -10 -25 -15 0 -5 -5 -9 -11
-9 -6 0 -22 -9 -36 -20 -17 -13 -41 -20 -69 -20 -24 0 -44 -4 -44 -10 0 -5 -6
-10 -14 -10 -7 0 -21 -11 -30 -25 -9 -14 -25 -25 -36 -25 -11 0 -20 -7 -20
-15 0 -8 -7 -15 -15 -15 -9 0 -15 -9 -15 -24 0 -13 -6 -29 -14 -36 -16 -12
-79 -138 -91 -180 -4 -14 -16 -33 -26 -43 -11 -10 -17 -22 -14 -28 4 -5 -3 -9
-14 -9 -14 0 -19 -5 -15 -15 4 -8 3 -23 -2 -32 -4 -10 -9 -31 -10 -48 0 -16
-2 -37 -3 -45 0 -8 -19 -26 -42 -40 -29 -18 -48 -41 -70 -85 -16 -33 -29 -65
-29 -73 0 -8 -8 -10 -24 -6 -21 5 -26 1 -40 -44 -9 -28 -16 -68 -15 -91 2 -31
-2 -45 -19 -59 -12 -11 -19 -22 -16 -25 4 -3 -1 -13 -10 -22 -9 -9 -17 -23
-17 -31 -1 -8 -2 -17 -4 -21 -1 -5 -5 -21 -9 -38 -4 -16 -12 -39 -19 -50 -6
-11 -14 -38 -17 -60 -6 -40 -6 -40 -19 -15 -8 13 -14 36 -13 51 1 38 40 162
79 251 21 48 33 92 33 120 0 24 14 83 30 131 17 49 30 101 30 115 1 55 54 231
81 267 4 6 28 64 53 130 59 153 111 257 157 309 26 30 67 56 146 94 l110 53
38 100 c22 59 41 96 48 92 6 -4 7 -1 2 6 -4 7 12 61 38 124 25 62 71 176 103
254 31 79 60 140 65 137 5 -3 6 1 4 8 -5 13 128 353 367 938 58 140 133 325
168 410 34 85 80 197 101 248 21 51 39 97 39 102 0 6 5 10 10 10 10 0 20 20
34 63 3 10 10 16 15 13 5 -3 0 -24 -11 -47 -10 -23 -17 -43 -15 -46 3 -2 8 5
12 16 3 12 10 19 15 16 4 -3 6 5 2 17 -4 16 -2 19 8 13 9 -5 11 -4 6 3 -4 7 3
14 19 18 28 7 34 34 8 34 -17 1 -17 2 1 15 10 7 15 18 12 23 -3 5 3 18 13 28
10 11 21 32 25 48 10 40 59 86 91 86 25 0 27 -3 21 -27z m-4103 10 c-7 -2 -19
-2 -25 0 -7 3 -2 5 12 5 14 0 19 -2 13 -5z m-46 -9 c-3 -3 -12 -4 -19 -1 -8 3
-5 6 6 6 11 1 17 -2 13 -5z m-60 -10 c-3 -3 -12 -4 -19 -1 -8 3 -5 6 6 6 11 1
17 -2 13 -5z m2053 -13 c0 -6 -4 -13 -10 -16 -5 -3 -10 1 -10 9 0 9 5 16 10
16 6 0 10 -4 10 -9z m-3173 -48 c-3 -10 -5 -2 -5 17 0 19 2 27 5 18 2 -10 2
-26 0 -35z m3117 -22 c-1 -14 -2 -30 -4 -36 -3 -14 -18 35 -19 63 -1 18 2 20
12 11 7 -7 12 -24 11 -38z m83 12 c-3 -10 -5 -4 -5 12 0 17 2 24 5 18 2 -7 2
-21 0 -30z m1198 12 c0 -13 -8 -21 -23 -23 -16 -3 -28 -15 -38 -38 -17 -41
-34 -36 -34 11 0 25 7 39 28 54 33 26 67 24 67 -4z m-4378 -57 c-2 -13 -4 -3
-4 22 0 25 2 35 4 23 2 -13 2 -33 0 -45z m3124 39 c-10 -9 -11 -8 -5 6 3 10 9
15 12 12 3 -3 0 -11 -7 -18z m-2571 -27 c0 -5 -4 -10 -10 -10 -5 0 -10 5 -10
10 0 6 5 10 10 10 6 0 10 -4 10 -10z m-563 -87 c-3 -10 -5 -2 -5 17 0 19 2 27
5 18 2 -10 2 -26 0 -35z m5562 36 c17 -6 31 -15 31 -20 0 -12 -5 -11 -45 5
-56 24 -45 35 14 15z m-5542 -61 c-2 -13 -4 -5 -4 17 -1 22 1 32 4 23 2 -10 2
-28 0 -40z m3082 20 c0 -27 -2 -29 -8 -13 -5 11 -6 26 -4 33 8 21 13 13 12
-20z m-2562 -10 c-3 -8 -6 -5 -6 6 -1 11 2 17 5 13 3 -3 4 -12 1 -19z m5502
-50 l-1 -43 -8 35 c-8 32 -6 50 6 50 2 0 4 -19 3 -42z m-6002 0 c-3 -7 -5 -2
-5 12 0 14 2 19 5 13 2 -7 2 -19 0 -25z m3280 -120 c-2 -29 -3 -8 -3 47 0 55
1 79 3 53 2 -26 2 -71 0 -100z m-3330 90 c-3 -8 -6 -5 -6 6 -1 11 2 17 5 13 3
-3 4 -12 1 -19z m20 -25 c-3 -10 -5 -4 -5 12 0 17 2 24 5 18 2 -7 2 -21 0 -30z
m520 -10 c-3 -10 -5 -2 -5 17 0 19 2 27 5 18 2 -10 2 -26 0 -35z m30 -5 c-3
-7 -5 -2 -5 12 0 14 2 19 5 13 2 -7 2 -19 0 -25z m2530 -110 c-2 -29 -3 -8 -3
47 0 55 1 79 3 53 2 -26 2 -71 0 -100z m-3096 -53 c-6 -55 -17 -167 -26 -250
-22 -207 -26 -238 -32 -232 -4 5 9 140 47 497 6 47 10 96 11 110 l2 25 4 -25
c3 -14 0 -70 -6 -125z m541 96 c11 17 2 -44 -14 -84 -6 -15 -8 -49 -5 -75 5
-37 4 -43 -5 -25 -7 14 -8 52 -3 110 4 48 10 82 13 74 4 -11 6 -11 14 0z
m2285 -47 c-3 -3 -12 -4 -19 -1 -8 3 -5 6 6 6 11 1 17 -2 13 -5z m13 -58 c0
-9 -4 -16 -10 -16 -5 0 -10 -7 -10 -16 0 -14 -3 -14 -15 -4 -18 15 -19 46 -3
64 10 11 15 11 25 0 7 -7 13 -20 13 -28z m207 7 c-3 -10 -5 -4 -5 12 0 17 2
24 5 18 2 -7 2 -21 0 -30z m-2560 -90 c-3 -10 -5 -2 -5 17 0 19 2 27 5 18 2
-10 2 -26 0 -35z m2311 0 c-16 -39 -32 -54 -23 -23 7 24 23 50 31 50 2 0 -2
-12 -8 -27z m24 -39 c-3 -22 -7 -31 -12 -24 -6 9 -11 7 -19 -6 -6 -11 -11 -14
-11 -9 0 10 37 75 43 75 2 0 1 -16 -1 -36z m185 4 c-3 -8 -6 -5 -6 6 -1 11 2
17 5 13 3 -3 4 -12 1 -19z m-3166 -61 c-8 -8 -11 -1 -11 24 0 46 14 60 18 19
2 -18 -1 -37 -7 -43z m649 69 c0 -3 -4 -8 -10 -11 -5 -3 -10 -1 -10 4 0 6 5
11 10 11 6 0 10 -2 10 -4z m40 -64 c-7 -13 -9 -8 -9 23 0 35 1 37 10 17 6 -15
5 -30 -1 -40z m2607 26 c-3 -7 -5 -2 -5 12 0 14 2 19 5 13 2 -7 2 -19 0 -25z
m-3310 -80 c-3 -7 -5 -2 -5 12 0 14 2 19 5 13 2 -7 2 -19 0 -25z m690 0 c-3
-7 -5 -2 -5 12 0 14 2 19 5 13 2 -7 2 -19 0 -25z m2623 -24 c0 -25 -4 -43 -8
-40 -7 4 -4 86 4 86 2 0 4 -21 4 -46z m-3143 -21 c-3 -10 -5 -4 -5 12 0 17 2
24 5 18 2 -7 2 -21 0 -30z m2648 7 c3 -5 1 -10 -4 -10 -6 0 -11 5 -11 10 0 6
2 10 4 10 3 0 8 -4 11 -10z m-2131 -84 c3 -90 -9 -73 -16 22 -2 36 0 61 5 59
5 -1 10 -38 11 -81z m2503 -143 c-1 -43 -3 -10 -3 72 0 83 2 118 3 78 2 -40 2
-107 0 -150z m20 185 c-3 -7 -5 -2 -5 12 0 14 2 19 5 13 2 -7 2 -19 0 -25z
m300 -25 c-3 -10 -5 -2 -5 17 0 19 2 27 5 18 2 -10 2 -26 0 -35z m-3350 -5
c-3 -8 -6 -5 -6 6 -1 11 2 17 5 13 3 -3 4 -12 1 -19z m-176 -100 c-9 -42 -9
-41 -9 22 -1 48 2 59 8 43 5 -13 5 -41 1 -65z m3329 30 c0 -16 -4 -28 -10 -28
-5 0 -10 19 -10 43 0 31 3 38 10 27 5 -8 10 -27 10 -42z m197 -30 c-2 -18 -4
-6 -4 27 0 33 2 48 4 33 2 -15 2 -42 0 -60z m-1486 57 c-1 -15 -24 -12 -29 3
-3 9 2 13 12 10 10 -1 17 -7 17 -13z m-134 -17 c-3 -8 -6 -5 -6 6 -1 11 2 17
5 13 3 -3 4 -12 1 -19z m1065 -16 c-7 -2 -10 -14 -6 -30 5 -25 4 -24 -11 5
-10 18 -15 40 -11 49 5 14 8 14 23 -2 13 -12 14 -19 5 -22z m-62 7 c0 -11 -4
-17 -10 -14 -5 3 -10 13 -10 21 0 8 5 14 10 14 6 0 10 -9 10 -21z m164 -10
c-3 -5 -10 -7 -15 -3 -5 3 -7 10 -3 15 3 5 10 7 15 3 5 -3 7 -10 3 -15z
m-2389 -66 c-9 -76 -17 -61 -8 18 3 35 8 58 11 51 2 -7 1 -38 -3 -69z m1185
57 c0 -5 -4 -10 -10 -10 -5 0 -10 5 -10 10 0 6 5 10 10 10 6 0 10 -4 10 -10z
m-1703 -32 c-3 -7 -5 -2 -5 12 0 14 2 19 5 13 2 -7 2 -19 0 -25z m2633 5 c0
-26 -1 -26 -17 -10 -16 16 -16 19 -3 27 20 13 20 13 20 -17z m187 -20 c-3 -10
-5 -4 -5 12 0 17 2 24 5 18 2 -7 2 -21 0 -30z m321 -26 c2 -21 -1 -37 -7 -37
-6 0 -11 4 -11 9 0 5 -3 23 -7 41 -5 25 -3 32 8 28 8 -2 15 -21 17 -41z m-590
5 c2 -12 8 -22 14 -22 6 0 6 -6 -2 -15 -7 -9 -10 -29 -8 -48 6 -37 0 -60 -13
-51 -5 3 -9 23 -9 45 0 41 -12 51 -29 22 -6 -10 -11 -13 -11 -6 0 6 5 15 10
18 6 3 10 21 10 39 0 18 3 36 7 40 12 11 28 0 31 -22z m779 -29 c-3 -10 -5 -4
-5 12 0 17 2 24 5 18 2 -7 2 -21 0 -30z m-3367 -30 c-4 -42 -5 -44 -8 -15 -3
30 2 62 10 62 2 0 1 -21 -2 -47z m2680 27 c0 -5 -4 -10 -9 -10 -6 0 -13 5 -16
10 -3 6 1 10 9 10 9 0 16 -4 16 -10z m-225 -30 c3 -5 -1 -10 -9 -10 -9 0 -16
5 -16 10 0 6 4 10 9 10 6 0 13 -4 16 -10z m366 -27 c-5 -11 -6 -25 -1 -33 6
-10 9 -7 12 11 4 33 22 30 26 -5 5 -40 -12 -54 -38 -31 -22 20 -27 64 -8 83
16 16 22 -1 9 -25z m352 -53 c-8 -31 -23 -34 -23 -6 0 16 6 26 14 26 9 0 12
-7 9 -20z m-395 -20 c-7 -10 -14 -17 -17 -15 -4 4 18 35 25 35 2 0 -1 -9 -8
-20z m289 -57 c-3 -10 -5 -4 -5 12 0 17 2 24 5 18 2 -7 2 -21 0 -30z m-2530
-5 c-3 -8 -6 -5 -6 6 -1 11 2 17 5 13 3 -3 4 -12 1 -19z m2870 -124 c-3 -3
-12 -4 -19 -1 -8 3 -5 6 6 6 11 1 17 -2 13 -5z m-2003 -89 c-4 -8 -8 -15 -10
-15 -2 0 -4 7 -4 15 0 8 4 15 10 15 5 0 7 -7 4 -15z m715 -240 c8 -31 7 -166
-3 -268 -4 -37 -3 -39 22 -34 l27 6 -27 -12 c-24 -9 -28 -17 -28 -48 l0 -37
-67 -11 c-38 -5 -111 -15 -163 -21 -52 -6 -151 -17 -220 -25 -68 -8 -137 -15
-153 -15 l-29 0 7 118 c4 64 10 162 14 217 l6 100 85 13 c264 39 354 49 432
51 l87 1 10 -35z m98 6 c3 -11 11 -22 19 -25 24 -9 18 -79 -10 -109 -13 -14
-21 -28 -19 -31 3 -3 1 -12 -6 -20 -7 -8 -9 -25 -5 -43 4 -15 4 -26 1 -23 -3
3 -6 10 -7 15 -1 6 -5 15 -10 20 -9 11 -16 152 -8 160 3 3 8 -9 12 -27 l7 -33
14 25 c16 27 19 51 8 49 -22 -4 -28 4 -29 31 -1 34 25 43 33 11z m163 -54 c30
-13 32 -17 16 -23 -11 -4 -21 -2 -27 7 -8 11 -13 10 -29 -10 -11 -13 -20 -32
-20 -42 0 -10 -6 -19 -14 -19 -11 0 -13 13 -11 58 2 31 4 58 4 59 1 3 28 -7
81 -30z m235 -74 c27 -9 30 -12 10 -8 -16 3 -47 8 -68 12 -21 3 -40 10 -43 14
-6 10 43 1 101 -18z m-379 -50 c-10 -10 -19 5 -10 18 6 11 8 11 12 0 2 -7 1
-15 -2 -18z m811 -95 c-2 -13 -4 -5 -4 17 -1 22 1 32 4 23 2 -10 2 -28 0 -40z
m-220 -25 c-3 -10 -5 -2 -5 17 0 19 2 27 5 18 2 -10 2 -26 0 -35z m3296 40
c-7 -2 -19 -2 -25 0 -7 3 -2 5 12 5 14 0 19 -2 13 -5z m-2743 -64 c0 -5 -5 -7
-10 -4 -7 5 -9 -52 -6 -177 4 -167 -3 -409 -23 -723 l-7 -120 -3 190 c-4 282
-3 413 2 423 3 4 7 69 8 142 3 205 9 280 25 280 8 0 14 -5 14 -11z m-2106 -15
c9 -3 16 -12 16 -20 0 -11 -5 -11 -27 -2 -16 7 -32 15 -37 20 -12 9 25 11 48
2z m-1524 -61 c0 -10 -5 -25 -10 -33 -7 -11 -10 -7 -10 18 0 17 5 32 10 32 6
0 10 -8 10 -17z m2467 1 c-3 -3 -12 -4 -19 -1 -8 3 -5 6 6 6 11 1 17 -2 13 -5z
m1317 -119 c17 -43 20 -45 56 -45 84 0 195 -21 216 -42 l22 -20 -25 -61 c-31
-76 -103 -231 -144 -311 -17 -32 -39 -97 -49 -145 -24 -114 -31 -129 -80 -176
l-42 -40 8 370 c5 204 8 405 8 447 0 42 3 75 7 73 3 -3 14 -25 23 -50z m3026
1 c7 -31 6 -35 -6 -25 -8 6 -14 19 -14 28 0 14 -2 14 -10 1 -8 -12 -10 -10
-10 11 0 55 26 45 40 -15z m-3510 35 c0 -6 -4 -13 -10 -16 -5 -3 -10 1 -10 9
0 9 5 16 10 16 6 0 10 -4 10 -9z m-2090 -51 c0 -5 -4 -10 -10 -10 -5 0 -10 5
-10 10 0 6 5 10 10 10 6 0 10 -4 10 -10z m2076 -227 c-7 -259 -16 -426 -23
-433 -3 -3 -1 123 3 280 4 157 7 301 6 320 -2 37 3 60 13 60 4 0 4 -102 1
-227z m-19 -535 c-3 -7 -5 -2 -5 12 0 14 2 19 5 13 2 -7 2 -19 0 -25z m-1591
-12 c148 -7 619 -88 642 -111 4 -3 2 -9 -4 -13 -49 -34 -99 -198 -109 -362 -7
-115 -22 -200 -35 -200 -4 0 -6 -9 -3 -20 3 -13 0 -20 -8 -20 -8 0 -20 9 -27
20 -9 15 -23 20 -52 20 -28 0 -40 4 -40 15 0 8 -17 19 -42 26 -47 12 -70 27
-63 39 17 28 -25 46 -122 53 -13 1 -23 6 -23 10 0 21 -43 67 -62 67 -11 0 -43
7 -72 16 -95 30 -112 34 -144 34 -17 0 -34 5 -37 10 -8 14 -239 4 -268 -12
-31 -16 -47 -34 -47 -52 0 -9 -4 -16 -9 -16 -5 0 -23 -24 -40 -54 -33 -56 -42
-130 -18 -139 9 -3 9 -9 0 -28 -15 -30 -15 -89 -1 -106 6 -8 8 -17 4 -20 -4
-4 -11 -1 -17 7 -7 11 -8 8 -3 -12 3 -14 0 -36 -7 -49 -8 -16 -9 -24 -1 -27
11 -3 -11 -76 -30 -97 -14 -15 -9 -25 12 -25 26 0 26 -17 0 -25 -15 -5 -18
-12 -14 -35 5 -20 0 -34 -15 -49 -12 -12 -21 -26 -21 -31 0 -15 -38 -88 -71
-137 -19 -26 -25 -43 -17 -45 19 -7 1 -38 -22 -38 -11 0 -20 -6 -20 -13 0 -7
-16 -36 -36 -66 -23 -34 -33 -56 -26 -63 9 -9 -24 -89 -40 -96 -5 -2 -8 -11
-8 -21 0 -9 -4 -21 -8 -27 -21 -23 -36 -112 -46 -279 -2 -22 -8 -50 -14 -62
-9 -17 -9 -28 0 -47 9 -20 8 -32 -2 -53 -26 -58 -31 -92 -31 -231 1 -79 -3
-141 -8 -138 -5 3 -11 -4 -15 -17 -9 -33 -7 -75 3 -79 5 -2 5 -26 0 -58 -5
-30 -9 -89 -8 -130 2 -104 1 -109 -11 -90 -15 24 -4 1054 14 1275 20 241 33
366 46 435 18 96 29 183 40 322 15 203 49 327 136 500 77 154 142 226 249 280
141 71 219 79 571 64z m2913 -317 c-5 -3 0 -14 11 -24 12 -11 17 -22 12 -29
-5 -6 -9 -33 -10 -61 -1 -27 -6 -51 -12 -53 -5 -2 -7 -14 -4 -27 3 -12 1 -26
-5 -29 -6 -4 -13 5 -17 20 -4 15 -2 29 5 33 8 5 8 16 -1 42 -22 66 -33 89 -42
89 -4 0 -3 6 3 13 6 8 8 17 4 20 -3 4 3 7 15 7 13 0 22 6 22 15 0 13 2 13 14
3 8 -7 10 -16 5 -19z m-10 -276 c0 -21 -3 -32 -6 -25 -2 6 -10 9 -16 6 -8 -5
-8 -2 1 7 6 7 12 21 12 31 0 10 2 18 5 18 3 0 5 -17 4 -37z m-10 -92 c-2 -32
-2 -33 -6 -7 -4 22 -7 26 -14 15 -6 -10 -9 -7 -9 13 0 20 4 26 15 22 10 -4 14
-18 14 -43z m-574 -121 c-25 -100 -29 -177 -11 -205 15 -23 15 -29 2 -58 -8
-17 -17 -52 -21 -77 -3 -25 -8 -56 -10 -69 -2 -15 3 -30 13 -37 14 -10 15 -15
5 -25 -7 -7 -13 -22 -13 -33 0 -17 2 -18 10 -6 7 11 10 6 10 -21 0 -43 -25
-61 -36 -26 -4 12 -8 112 -9 222 -1 128 -6 210 -13 228 -11 26 -10 46 4 99 3
9 15 19 28 22 15 4 26 16 30 32 4 16 11 23 16 18 6 -6 4 -31 -5 -64z m175 46
c0 -38 -12 -86 -21 -86 -10 0 -12 93 -2 103 13 14 23 6 23 -17z m-1953 -33
c-3 -10 -5 -4 -5 12 0 17 2 24 5 18 2 -7 2 -21 0 -30z m2340 -35 c-3 -8 -6 -5
-6 6 -1 11 2 17 5 13 3 -3 4 -12 1 -19z m34 -151 c12 -40 25 -74 29 -77 12
-10 42 -89 38 -100 -5 -15 -96 190 -104 235 -1 6 -5 19 -9 30 -6 19 -6 19 8 2
8 -10 25 -50 38 -90z m-2321 -23 c0 -2 -9 -4 -20 -4 -11 0 -20 4 -20 9 0 5 9
7 20 4 11 -3 20 -7 20 -9z m-1943 -24 c10 -11 23 -20 30 -20 7 0 10 -7 6 -15
-5 -14 -8 -14 -22 -2 -9 8 -23 12 -31 10 -12 -4 -12 -3 -1 5 10 8 8 13 -10 26
-19 13 -20 16 -6 16 9 0 25 -9 34 -20z m1990 -167 c8 -34 8 -51 1 -58 -8 -7
-9 -6 -4 2 4 7 3 21 -2 30 -14 28 -23 73 -14 73 4 0 13 -21 19 -47z m2153 -27
c0 -17 106 -105 161 -134 29 -15 54 -33 57 -41 3 -10 0 -11 -16 -2 -11 6 -34
11 -51 11 -17 0 -38 8 -48 19 -10 10 -30 26 -45 36 -16 9 -28 23 -28 30 0 7
-7 18 -15 25 -15 13 -75 115 -75 127 1 11 60 -59 60 -71z m249 -71 c-1 -16 -2
-15 -8 5 -5 14 -15 40 -24 57 -10 18 -17 38 -16 45 1 20 48 -84 48 -107z
m-4388 -39 c-5 -59 -12 -110 -14 -113 -3 -2 -14 0 -25 6 -12 6 -37 11 -56 11
-20 0 -36 5 -36 10 0 11 60 7 91 -5 13 -5 17 6 22 67 7 80 17 141 23 135 3 -2
0 -52 -5 -111z m160 29 c-6 -43 -9 -50 -10 -25 -1 41 12 122 16 100 2 -8 -1
-42 -6 -75z m3236 63 c-3 -8 -6 -5 -6 6 -1 11 2 17 5 13 3 -3 4 -12 1 -19z
m-1947 -124 c0 -8 -7 -17 -16 -21 -8 -3 -13 -12 -10 -19 3 -9 -2 -14 -14 -14
-21 0 -19 16 8 57 15 24 32 22 32 -3z m-1605 -45 c5 -14 2 -25 -6 -30 -19 -12
-34 -5 -33 15 1 9 -4 16 -12 16 -15 0 -19 -27 -6 -46 9 -15 85 -19 245 -11 65
3 90 1 93 -8 3 -7 13 -11 23 -8 22 6 34 -35 18 -62 -5 -9 -6 -31 -3 -48 6 -28
5 -29 -11 -15 -10 9 -24 13 -30 11 -9 -3 -13 7 -13 33 0 20 -3 34 -7 31 -3 -4
-16 -1 -28 7 -14 10 -63 16 -146 19 -141 6 -157 10 -165 43 -14 54 65 105 81
53z m-528 -271 c-4 -51 -14 -115 -22 -143 l-15 -50 7 65 c4 36 7 88 7 117 1
28 4 49 9 46 4 -2 7 10 7 26 0 17 3 31 7 31 3 0 3 -42 0 -92z m-31 -256 c-12
-11 -18 7 -10 30 l8 23 4 -23 c2 -13 1 -26 -2 -30z m651 11 c-3 -10 -5 -4 -5
12 0 17 2 24 5 18 2 -7 2 -21 0 -30z m2138 -35 c61 -1 -5 -4 -145 -7 -140 -4
-257 -3 -260 0 -3 4 -14 9 -25 12 -11 3 57 4 150 2 94 -3 220 -5 280 -7z
m-492 -5 c-7 -2 -19 -2 -25 0 -7 3 -2 5 12 5 14 0 19 -2 13 -5z m-1656 -25
c-3 -8 -6 -5 -6 6 -1 11 2 17 5 13 3 -3 4 -12 1 -19z m1526 15 c-13 -2 -35 -2
-50 0 -16 2 -5 4 22 4 28 0 40 -2 28 -4z m-2058 -134 c4 -6 5 -12 2 -15 -7 -7
-37 7 -37 17 0 13 27 11 35 -2z m-138 -36 c-3 -10 -5 -4 -5 12 0 17 2 24 5 18
2 -7 2 -21 0 -30z m113 -3 c0 -5 -2 -10 -4 -10 -3 0 -8 5 -11 10 -3 6 -1 10 4
10 6 0 11 -4 11 -10z m450 -41 c0 -5 -7 -9 -15 -9 -8 0 -15 7 -15 15 0 9 6 12
15 9 8 -4 15 -10 15 -15z m2274 -270 c-4 -8 48 -10 186 -7 105 1 181 0 168 -4
-13 -4 6 -7 47 -6 194 1 378 -3 372 -9 -14 -13 -1131 8 -1145 22 -4 3 67 5
156 4 89 -2 165 1 169 4 11 12 55 8 47 -4z m214 4 c-27 -2 -69 -2 -95 0 -27 2
-5 3 47 3 52 0 74 -1 48 -3z m-860 -10 c-10 -2 -28 -2 -40 0 -13 2 -5 4 17 4
22 1 32 -1 23 -4z m65 0 c-7 -2 -21 -2 -30 0 -10 3 -4 5 12 5 17 0 24 -2 18
-5z m124 1 c-3 -3 -12 -4 -19 -1 -8 3 -5 6 6 6 11 1 17 -2 13 -5z m1146 -1
c-34 -2 -93 -2 -130 0 -37 2 -9 3 62 3 72 0 102 -1 68 -3z m-526 -320 c-20 -2
-52 -2 -70 0 -17 2 0 4 38 4 39 0 53 -2 32 -4z m211 -10 c-27 -2 -69 -2 -95 0
-27 2 -5 3 47 3 52 0 74 -1 48 -3z m-2170 -184 c15 -62 15 -109 2 -109 -5 0
-10 -25 -10 -55 0 -30 -4 -74 -9 -97 -6 -24 -17 -79 -26 -123 -9 -44 -19 -87
-22 -95 -3 -8 -7 -30 -9 -48 -2 -18 -10 -47 -18 -64 -9 -17 -16 -48 -16 -68 0
-25 -10 -52 -30 -81 -16 -24 -30 -52 -30 -61 0 -21 -14 -54 -40 -93 -11 -16
-24 -40 -30 -52 -5 -13 -13 -23 -18 -23 -4 0 -15 -12 -24 -27 -9 -16 -28 -40
-42 -55 -19 -20 -26 -38 -26 -67 0 -35 2 -39 21 -34 11 3 33 19 49 34 28 29
63 38 75 19 7 -12 -41 -44 -55 -35 -5 3 -10 -2 -10 -13 0 -10 -9 -27 -20 -37
-17 -16 -24 -16 -44 -5 -35 18 -87 -15 -103 -67 -23 -77 -26 -109 -9 -126 23
-22 20 -32 -18 -70 -27 -28 -49 -38 -112 -52 -86 -19 -87 -19 -124 -40 -14 -8
-37 -15 -51 -15 -15 0 -58 -13 -95 -28 l-69 -28 -48 20 c-42 18 -53 19 -95 8
-26 -7 -58 -21 -72 -31 -30 -21 -67 -32 -85 -25 -11 5 -10 14 5 50 20 46 18
50 -26 45 -6 -1 -16 10 -22 24 -14 30 -22 31 -52 5 -13 -11 -26 -20 -29 -20
-15 -1 -67 -56 -64 -67 11 -33 -57 9 -80 49 -13 22 -14 34 -6 49 5 11 7 24 4
29 -6 10 -45 -24 -45 -40 0 -15 -33 -12 -57 5 -11 8 -30 35 -42 60 -12 25 -26
45 -31 45 -12 0 -50 83 -50 110 0 9 7 24 17 31 9 8 25 33 35 56 36 81 69 92
136 44 l40 -30 144 4 c196 6 237 12 331 47 45 17 103 37 130 45 26 8 47 18 47
22 0 4 17 13 38 20 136 49 360 160 430 213 90 69 166 184 225 338 41 109 95
357 104 478 3 45 9 82 13 82 4 0 12 -23 18 -51z m-1255 -86 c7 -16 24 -46 37
-68 27 -47 100 -191 100 -197 0 -3 -6 -5 -14 -5 -8 0 -12 6 -9 13 3 9 -2 11
-16 7 -17 -4 -21 -1 -21 16 0 18 -5 21 -26 19 -32 -4 -35 1 -69 127 -14 55
-29 108 -32 118 -4 16 -2 17 15 8 11 -6 27 -23 35 -38z m5924 -255 c-3 -8 -6
-5 -6 6 -1 11 2 17 5 13 3 -3 4 -12 1 -19z m0 -170 c-3 -8 -6 -5 -6 6 -1 11 2
17 5 13 3 -3 4 -12 1 -19z m0 -225 c-3 -10 -5 -4 -5 12 0 17 2 24 5 18 2 -7 2
-21 0 -30z m-1279 -155 c0 -16 6 -36 13 -44 9 -11 9 -17 -1 -29 -6 -8 -9 -18
-6 -24 3 -5 3 -17 0 -26 -6 -15 -9 -14 -20 6 -7 13 -14 40 -14 59 0 19 -5 53
-10 74 -5 22 -6 44 -3 49 10 16 40 -33 41 -65z m20 -166 c2 -7 -3 -12 -12 -12
-9 0 -16 7 -16 16 0 17 22 14 28 -4z m-3490 -4 c-6 -18 -28 -21 -28 -4 0 9 7
16 16 16 9 0 14 -5 12 -12z m-78 -22 c0 -8 -7 -16 -15 -20 -10 -4 -15 1 -15
14 0 11 7 20 15 20 8 0 15 -6 15 -14z m3566 -63 c-11 -11 -19 6 -11 24 8 17 8
17 12 0 3 -10 2 -21 -1 -24z m-321 -94 c4 -10 11 -19 16 -19 5 0 42 -32 81
-70 51 -50 84 -74 113 -81 22 -6 46 -13 54 -15 8 -3 11 -12 8 -24 -6 -23 3
-26 21 -8 8 8 15 9 22 2 7 -7 -1 -17 -27 -30 -21 -10 -39 -22 -41 -26 -2 -5
-21 -8 -43 -8 -28 0 -39 -4 -39 -15 0 -8 -5 -15 -11 -15 -13 0 -69 -55 -69
-68 0 -6 -21 -12 -46 -14 -44 -3 -45 -2 -41 22 3 14 1 34 -4 45 -18 39 1 -165
25 -273 14 -63 29 -177 36 -277 13 -181 47 -388 79 -470 10 -27 29 -86 41
-129 12 -44 40 -118 62 -165 97 -205 121 -280 153 -481 10 -58 22 -119 27
-137 9 -30 27 -125 64 -333 36 -205 67 -356 74 -365 14 -18 29 -110 20 -119
-6 -6 -44 -2 -97 8 -171 33 -170 33 -213 141 -13 33 -29 67 -37 76 -7 8 -13
20 -13 26 0 6 -39 47 -86 92 -100 94 -125 102 -149 45 -8 -20 -15 -47 -15 -60
0 -32 23 -104 32 -104 5 0 8 -4 8 -10 0 -17 -32 -11 -49 9 -21 24 -43 267 -38
426 2 61 6 328 10 595 3 267 9 573 12 680 4 107 8 413 8 680 1 267 6 491 10
498 11 16 33 0 42 -29z m325 21 c0 -5 -5 -10 -11 -10 -5 0 -7 5 -4 10 3 6 8
10 11 10 2 0 4 -4 4 -10z m-3780 -186 c0 -8 -9 -14 -20 -14 -19 0 -27 19 -14
33 10 9 34 -4 34 -19z m188 -270 c27 -4 47 -14 53 -26 5 -10 14 -16 18 -13 5
3 28 -2 51 -10 23 -8 54 -16 69 -16 17 -1 20 -3 9 -6 -10 -2 -18 -9 -18 -14 0
-5 -13 -3 -30 6 -33 17 -64 20 -55 5 3 -5 -1 -10 -9 -10 -8 0 -17 4 -20 8 -3
5 -71 17 -151 27 -80 10 -145 21 -145 24 1 21 24 30 80 34 66 4 72 3 148 -9z
m-340 -7 c19 -3 55 -26 42 -27 -3 0 -99 -3 -215 -6 -202 -6 -209 -6 -193 12
14 14 41 19 145 24 116 6 151 5 221 -3z m565 -94 c-7 -2 -19 -2 -25 0 -7 3 -2
5 12 5 14 0 19 -2 13 -5z m-1323 -53 c0 -5 -4 -10 -10 -10 -5 0 -10 5 -10 10
0 6 5 10 10 10 6 0 10 -4 10 -10z m-135 -101 c8 -12 -14 -69 -27 -69 -16 0
-21 30 -10 56 12 26 27 31 37 13z m-176 -403 c21 -13 11 -27 -33 -47 -53 -23
-122 -23 -130 0 -3 9 -8 21 -11 27 -9 18 37 32 101 29 34 -1 67 -5 73 -9z
m356 -105 c3 -5 1 -13 -5 -16 -15 -9 -43 3 -35 15 8 13 32 13 40 1z m2915 -21
c0 -16 -4 -30 -9 -30 -5 0 -11 14 -13 30 -3 20 0 30 9 30 8 0 13 -12 13 -30z
m-170 -63 c0 -7 6 -21 13 -31 11 -15 17 -16 35 -7 18 10 21 8 19 -9 -1 -11 -7
-20 -14 -20 -17 0 -17 -4 7 -42 11 -18 20 -40 19 -48 0 -9 -4 -6 -11 8 -6 12
-16 22 -23 22 -15 0 -75 54 -75 68 0 16 -53 24 -83 13 -31 -12 -33 -18 -11
-49 24 -34 9 -38 -30 -8 -57 43 -86 33 -136 -44 -18 -27 -36 -50 -41 -50 -5 0
-9 -7 -9 -15 0 -8 -4 -15 -9 -15 -8 0 -77 -111 -90 -145 -2 -5 -17 -26 -32
-46 -16 -20 -29 -42 -29 -48 0 -6 -4 -11 -9 -11 -5 0 -13 -9 -16 -21 -5 -15 1
-29 20 -49 23 -24 37 -29 103 -34 43 -4 95 -7 117 -6 22 1 81 2 132 3 l91 2
30 40 c22 31 46 48 97 70 l68 29 18 -23 c15 -19 26 -22 56 -18 36 4 42 0 101
-59 34 -35 62 -68 62 -73 0 -27 86 -16 190 24 60 23 99 27 149 14 94 -24 155
12 147 87 -2 16 -4 48 -5 71 -1 48 -30 76 -91 87 l-35 7 26 -23 c23 -19 25
-27 17 -48 -17 -46 -58 -48 -58 -3 0 15 -5 23 -12 20 -26 -9 -50 13 -43 40 4
17 2 22 -5 18 -6 -4 -29 5 -51 19 -35 24 -44 26 -77 16 -65 -18 -80 -14 -101
29 -11 21 -17 41 -14 45 3 3 -2 8 -11 12 -9 3 -16 10 -16 15 0 5 -16 32 -36
59 -29 40 -39 48 -50 39 -8 -6 -21 -9 -29 -5 -53 20 39 51 126 42 129 -12 146
-17 157 -41 21 -46 45 -48 102 -9 62 43 87 42 195 -10 39 -19 81 -37 95 -40
14 -3 48 -21 76 -39 29 -19 65 -37 80 -40 84 -17 103 -24 130 -47 34 -30 99
-124 109 -159 4 -13 20 -44 36 -69 34 -54 34 -52 10 -102 -16 -34 -18 -55 -13
-174 3 -92 1 -140 -6 -149 -7 -8 -12 -68 -13 -153 -2 -134 -3 -141 -30 -184
-64 -102 -178 -185 -294 -214 -33 -9 -116 -34 -185 -57 -69 -22 -143 -43 -165
-45 -123 -12 -216 -29 -226 -40 -9 -11 -8 -14 2 -15 8 0 5 -4 -6 -9 -13 -5
-26 -2 -38 8 -15 14 -26 14 -75 4 -35 -7 -105 -9 -182 -5 -100 4 -134 2 -170
-10 -31 -11 -38 -16 -22 -17 13 0 35 -9 49 -20 14 -11 32 -20 39 -20 8 0 14
-4 14 -10 0 -5 18 -10 39 -10 26 0 41 -5 45 -16 5 -14 -4 -16 -76 -13 -46 1
-95 -1 -110 -5 -15 -5 -41 -3 -60 3 -18 6 -51 13 -73 14 -22 2 -47 7 -55 10
-8 3 -37 9 -65 12 -81 11 -119 31 -144 76 -13 22 -20 43 -17 46 4 4 -4 18 -18
32 -13 14 -30 40 -37 56 -10 21 -32 39 -73 59 -52 25 -73 29 -160 31 -56 1
-122 8 -149 15 -37 10 -50 10 -62 0 -11 -9 -23 -6 -59 19 -74 51 -88 76 -84
148 3 57 1 63 -17 64 -19 0 -19 1 3 16 15 11 22 25 22 50 0 18 9 51 20 73 11
22 20 47 20 56 0 17 -64 204 -81 237 -6 12 -5 33 5 65 46 143 48 154 36 198
-7 24 -10 54 -6 67 8 32 93 135 118 142 10 4 34 19 51 35 18 15 59 36 92 45
33 10 65 21 70 26 6 4 31 11 55 15 75 11 232 74 263 105 44 46 94 56 180 36
136 -31 140 -31 198 -3 62 30 69 31 69 13z m198 -138 c-3 -8 -7 -3 -11 10 -4
17 -3 21 5 13 5 -5 8 -16 6 -23z m-250 -2 c2 -11 -3 -17 -17 -17 -25 0 -38 19
-20 31 19 12 33 6 37 -14z m199 -67 c-1 -11 -7 -20 -13 -20 -17 0 -25 28 -11
34 22 8 26 6 24 -14z m-69 -38 c3 -9 -3 -13 -19 -10 -12 1 -24 9 -27 16 -3 9
3 13 19 10 12 -1 24 -9 27 -16z m-358 -79 c0 -5 -12 -17 -27 -27 -25 -18 -25
-11 0 22 10 13 27 16 27 5z m-70 -7 c0 -2 -8 -10 -17 -17 -16 -13 -17 -12 -4
4 13 16 21 21 21 13z m-40 -56 c0 -5 -5 -10 -11 -10 -5 0 -7 5 -4 10 3 6 8 10
11 10 2 0 4 -4 4 -10z m-29 -43 c-10 -9 -11 -8 -5 6 3 10 9 15 12 12 3 -3 0
-11 -7 -18z m1009 13 c0 -5 -7 -7 -15 -4 -8 4 -15 8 -15 10 0 2 7 4 15 4 8 0
15 -4 15 -10z m103 -17 c-7 -2 -21 -2 -30 0 -10 3 -4 5 12 5 17 0 24 -2 18 -5z
m-3530 -134 c-6 -6 -18 -6 -28 -3 -18 7 -18 8 1 14 23 9 39 1 27 -11z m3637 7
c0 -2 -7 -6 -15 -10 -8 -3 -15 -1 -15 4 0 6 7 10 15 10 8 0 15 -2 15 -4z
m-3630 -86 c0 -5 -9 -10 -20 -10 -11 0 -20 5 -20 10 0 6 9 10 20 10 11 0 20
-4 20 -10z m-60 -420 c0 -5 -9 -10 -20 -10 -11 0 -20 5 -20 10 0 6 9 10 20 10
11 0 20 -4 20 -10z m-65 -520 c3 -5 -1 -10 -9 -10 -9 0 -16 5 -16 10 0 6 4 10
9 10 6 0 13 -4 16 -10z m2117 -93 c-7 -25 -9 -26 -26 -14 -18 13 -18 14 0 35
23 27 36 16 26 -21z m75 -19 c-3 -8 -6 -5 -6 6 -1 11 2 17 5 13 3 -3 4 -12 1
-19z m1323 -2 c0 -2 -7 -7 -16 -10 -8 -3 -12 -2 -9 4 6 10 25 14 25 6z m-98
-42 c-22 -19 -28 -20 -30 -7 -5 18 9 29 38 29 18 0 17 -2 -8 -22z m918 16 c0
-5 -10 -10 -22 -10 -19 0 -20 2 -8 10 19 13 30 13 30 0z"/>
<path d="M2935 12410 c-28 -7 -28 -8 -5 -9 14 0 32 4 40 9 17 11 8 11 -35 0z"/>
<path d="M1701 11984 c0 -11 3 -14 6 -6 3 7 2 16 -1 19 -3 4 -6 -2 -5 -13z"/>
<path d="M1562 10630 c0 -19 2 -27 5 -17 2 9 2 25 0 35 -3 9 -5 1 -5 -18z"/>
<path d="M1551 10464 c0 -11 3 -14 6 -6 3 7 2 16 -1 19 -3 4 -6 -2 -5 -13z"/>
<path d="M2945 12190 c-16 -7 -17 -9 -3 -9 9 -1 20 4 23 9 7 11 7 11 -20 0z"/>
<path d="M2998 12193 c6 -2 18 -2 25 0 6 3 1 5 -13 5 -14 0 -19 -2 -12 -5z"/>
<path d="M4390 11510 c-9 -6 -10 -10 -3 -10 6 0 15 5 18 10 8 12 4 12 -15 0z"/>
<path d="M4658 11553 c7 -3 16 -2 19 1 4 3 -2 6 -13 5 -11 0 -14 -3 -6 -6z"/>
<path d="M4894 10265 c0 -82 2 -115 3 -72 2 43 2 110 0 150 -1 40 -3 5 -3 -78z"/>
<path d="M4716 10867 c3 -10 9 -15 12 -12 3 3 0 11 -7 18 -10 9 -11 8 -5 -6z"/>
<path d="M3438 10483 c7 -3 16 -2 19 1 4 3 -2 6 -13 5 -11 0 -14 -3 -6 -6z"/>
<path d="M2167 10411 c-4 -17 -3 -21 5 -13 5 5 8 16 6 23 -3 8 -7 3 -11 -10z"/>
<path d="M2090 10389 c0 -5 9 -9 20 -9 11 0 20 2 20 4 0 2 -9 6 -20 9 -11 3
-20 1 -20 -4z"/>
<path d="M2350 10331 c0 -6 4 -13 10 -16 6 -3 7 1 4 9 -7 18 -14 21 -14 7z"/>
<path d="M1997 10196 c-4 -10 -1 -13 9 -9 15 6 19 23 5 23 -5 0 -11 -7 -14
-14z"/>
<path d="M1982 10022 c-13 -27 -5 -53 9 -31 8 12 10 12 18 0 12 -18 24 3 16
28 -9 30 -29 31 -43 3z"/>
<path d="M1960 9935 c0 -8 5 -15 10 -15 6 0 10 7 10 15 0 8 -4 15 -10 15 -5 0
-10 -7 -10 -15z"/>
<path d="M4581 10544 c0 -11 3 -14 6 -6 3 7 2 16 -1 19 -3 4 -6 -2 -5 -13z"/>
<path d="M4594 10295 c0 -55 1 -76 3 -47 2 29 2 74 0 100 -2 26 -3 2 -3 -53z"/>
<path d="M4726 10396 c3 -9 11 -16 16 -16 13 0 5 23 -10 28 -7 2 -10 -2 -6
-12z"/>
<path d="M4255 10372 c-25 -13 -27 -17 -11 -20 10 -2 23 1 29 7 6 6 22 11 37
11 l25 0 -23 -18 -23 -18 25 -13 c14 -8 27 -23 29 -35 4 -18 4 -17 6 5 0 14
-4 30 -9 35 -7 7 -8 19 -1 37 10 26 9 27 -22 26 -17 -1 -45 -8 -62 -17z"/>
<path d="M4355 10350 c-3 -11 -2 -27 3 -36 6 -12 9 -7 10 20 2 40 -3 46 -13
16z"/>
<path d="M3898 10330 c-15 -9 -87 -26 -148 -35 -14 -2 -72 -13 -129 -24 -119
-24 -147 -26 -154 -8 -3 7 -6 6 -6 -5 -1 -21 1 -20 -211 -58 -96 -17 -193 -35
-215 -40 -78 -18 63 1 200 26 72 14 162 29 200 34 39 6 151 27 250 46 99 20
199 40 223 44 39 6 69 20 44 20 -5 0 -16 2 -24 5 -7 2 -21 0 -30 -5z"/>
<path d="M4255 10320 c4 -6 1 -17 -5 -25 -8 -10 -9 -15 -2 -15 14 0 34 35 25
44 -10 10 -25 7 -18 -4z"/>
<path d="M4190 10199 c0 -5 5 -7 10 -4 6 3 10 8 10 11 0 2 -4 4 -10 4 -5 0
-10 -5 -10 -11z"/>
<path d="M4340 10170 c0 -5 5 -10 11 -10 5 0 7 5 4 10 -3 6 -8 10 -11 10 -2 0
-4 -4 -4 -10z"/>
<path d="M2842 10154 c-5 -8 -26 -22 -48 -30 l-39 -14 55 6 c30 3 84 12 120
19 l65 14 -74 -6 c-65 -5 -73 -3 -68 11 8 20 1 21 -11 0z"/>
<path d="M4213 10162 c-7 -4 -9 -13 -4 -21 6 -9 10 -7 14 8 3 12 4 21 4 21 -1
0 -7 -4 -14 -8z"/>
<path d="M4361 10134 c0 -11 3 -14 6 -6 3 7 2 16 -1 19 -3 4 -6 -2 -5 -13z"/>
<path d="M2728 10103 c7 -3 16 -2 19 1 4 3 -2 6 -13 5 -11 0 -14 -3 -6 -6z"/>
<path d="M3330 10096 c0 -18 19 -31 28 -21 4 4 1 10 -6 12 -6 3 -10 9 -6 14 3
5 0 9 -5 9 -6 0 -11 -6 -11 -14z"/>
<path d="M2625 10090 c-14 -7 -8 -8 20 -3 22 3 42 7 44 9 9 8 -45 2 -64 -6z"/>
<path d="M2915 10051 c-10 -18 17 -23 33 -7 15 15 15 16 -5 16 -12 0 -24 -4
-28 -9z"/>
<path d="M2321 9884 c0 -11 3 -14 6 -6 3 7 2 16 -1 19 -3 4 -6 -2 -5 -13z"/>
<path d="M2386 9775 c-3 -8 -1 -15 4 -15 6 0 10 7 10 15 0 8 -2 15 -4 15 -2 0
-6 -7 -10 -15z"/>
<path d="M2427 9761 c-6 -27 -3 -38 12 -53 13 -11 22 -14 26 -7 4 6 0 16 -8
22 -9 7 -17 26 -19 42 l-3 30 -8 -34z"/>
<path d="M4225 9770 c-3 -5 -1 -10 4 -10 6 0 11 5 11 10 0 6 -2 10 -4 10 -3 0
-8 -4 -11 -10z"/>
<path d="M4121 9723 c1 -53 6 -49 11 10 2 20 0 37 -4 37 -4 0 -8 -21 -7 -47z"/>
<path d="M4063 9724 c-3 -8 -1 -20 6 -27 8 -8 11 -4 11 16 0 30 -7 35 -17 11z"/>
<path d="M4000 9690 c0 -5 5 -10 10 -10 6 0 10 5 10 10 0 6 -4 10 -10 10 -5 0
-10 -4 -10 -10z"/>
<path d="M2568 9668 c-8 -19 7 -55 16 -40 4 7 12 10 17 7 5 -4 9 5 9 19 0 14
-4 26 -10 26 -5 0 -10 -6 -10 -12 0 -10 -2 -10 -9 0 -7 11 -9 11 -13 0z"/>
<path d="M3650 9505 c-25 -14 -25 -14 -2 -15 22 0 28 -10 15 -24 -13 -12 -11
-36 2 -36 8 0 14 16 17 45 4 50 3 50 -32 30z"/>
<path d="M3150 9471 c0 -12 5 -21 10 -21 6 0 10 6 10 14 0 8 -4 18 -10 21 -5
3 -10 -3 -10 -14z"/>
<path d="M3440 9476 c0 -9 7 -16 16 -16 17 0 14 22 -4 28 -7 2 -12 -3 -12 -12z"/>
<path d="M3610 9454 c0 -8 5 -12 10 -9 6 3 10 10 10 16 0 5 -4 9 -10 9 -5 0
-10 -7 -10 -16z"/>
<path d="M3518 9454 c-5 -4 -8 -16 -8 -28 0 -14 3 -17 11 -9 6 6 9 19 7 28 -1
9 -6 13 -10 9z"/>
<path d="M3570 9451 c0 -5 7 -12 16 -15 14 -5 15 -4 4 9 -14 17 -20 19 -20 6z"/>
<path d="M2319 9420 c-1 -14 -1 -31 0 -37 3 -21 -16 -15 -22 7 -8 31 -27 24
-27 -10 0 -23 -5 -31 -25 -36 -14 -3 -25 -10 -25 -15 0 -5 -13 -9 -30 -9 -48
0 -34 -17 20 -24 31 -4 53 -13 59 -24 8 -15 16 -15 66 -5 36 8 63 20 75 35 23
27 26 58 6 58 -9 0 -12 -9 -10 -27 3 -25 -11 27 -22 85 -6 28 -24 29 -24 1 0
-21 0 -21 -20 2 l-19 24 -2 -25z"/>
<path d="M3572 9390 c4 -41 30 -48 49 -13 11 20 11 26 -1 33 -9 6 -16 6 -18
-1 -3 -6 -10 -5 -19 2 -12 11 -14 8 -11 -21z"/>
<path d="M3674 9378 c-5 -13 -7 -56 -5 -97 3 -76 -3 -91 -41 -91 -12 0 -18 8
-18 23 0 42 -15 52 -44 31 -47 -35 -30 -57 58 -73 86 -16 85 -16 78 22 -3 17
-6 65 -6 105 -1 39 -5 72 -10 72 -5 0 -3 7 4 15 8 9 8 15 2 15 -6 0 -14 -10
-18 -22z"/>
<path d="M2246 9363 c-6 -14 -5 -15 5 -6 7 7 10 15 7 18 -3 3 -9 -2 -12 -12z"/>
<path d="M3493 9325 c-1 -25 3 -35 13 -35 10 0 13 10 11 35 -3 45 -21 45 -24
0z"/>
<path d="M3767 9347 c-4 -10 -7 -26 -7 -35 1 -15 2 -15 11 1 6 10 9 25 7 35
-3 16 -4 15 -11 -1z"/>
<path d="M3592 9310 c0 -14 2 -19 5 -12 2 6 2 18 0 25 -3 6 -5 1 -5 -13z"/>
<path d="M3495 9259 c5 -15 4 -19 -4 -15 -7 4 -11 -1 -11 -13 0 -12 -6 -21
-12 -22 -15 -1 21 -17 40 -18 6 -1 12 9 12 22 0 33 -11 67 -22 67 -5 0 -6 -10
-3 -21z"/>
<path d="M6622 9974 c-21 -59 -22 -68 -2 -29 11 22 20 34 20 26 0 -8 3 -12 6
-8 3 3 2 13 -4 22 -8 15 -11 14 -20 -11z"/>
<path d="M6579 9863 c-1 -10 -1 -24 0 -32 2 -7 -2 -10 -8 -6 -6 3 -11 2 -11
-4 0 -5 -3 -18 -7 -28 -4 -12 1 -9 13 7 18 22 31 80 19 80 -3 0 -6 -8 -6 -17z"/>
<path d="M6601 9864 c0 -11 3 -14 6 -6 3 7 2 16 -1 19 -3 4 -6 -2 -5 -13z"/>
<path d="M6521 9718 c-12 -28 -19 -49 -15 -45 4 3 16 1 28 -5 11 -6 18 -7 14
-3 -4 5 -2 15 5 23 10 13 9 14 -1 8 -18 -11 -26 18 -12 44 6 12 10 24 7 26 -2
3 -14 -19 -26 -48z m14 -28 c3 -5 1 -10 -4 -10 -6 0 -11 5 -11 10 0 6 2 10 4
10 3 0 8 -4 11 -10z"/>
<path d="M6560 9750 c0 -5 5 -10 10 -10 6 0 10 5 10 10 0 6 -4 10 -10 10 -5 0
-10 -4 -10 -10z"/>
<path d="M6486 9635 c-9 -26 -7 -32 5 -12 6 10 9 21 6 23 -2 3 -7 -2 -11 -11z"/>
<path d="M6497 9600 c-19 -32 -36 -127 -17 -100 5 8 10 27 10 41 0 15 6 29 14
32 10 4 21 57 12 57 -1 0 -10 -13 -19 -30z"/>
<path d="M6466 9585 c-9 -26 -7 -32 5 -12 6 10 9 21 6 23 -2 3 -7 -2 -11 -11z"/>
<path d="M6446 9535 c-9 -26 -7 -32 5 -12 6 10 9 21 6 23 -2 3 -7 -2 -11 -11z"/>
<path d="M6422 9472 c-6 -19 -7 -34 -1 -37 10 -7 12 0 10 30 -1 17 1 17 14 -5
l16 -25 -7 24 c-4 16 -3 21 5 17 7 -5 8 -1 4 9 -4 12 -8 13 -13 5 -6 -9 -9 -9
-12 1 -2 7 -10 -1 -16 -19z"/>
<path d="M6440 9422 c0 -6 -7 -18 -16 -27 -14 -13 -19 -14 -26 -3 -7 9 -8 7
-3 -7 4 -11 8 -26 8 -33 1 -17 22 -9 22 9 0 8 6 25 13 37 8 13 11 26 8 30 -3
3 -6 0 -6 -6z"/>
<path d="M6375 9359 c-4 -6 -5 -12 -2 -15 2 -3 7 2 10 11 7 17 1 20 -8 4z"/>
<path d="M6384 9315 c-3 -8 -3 -18 0 -23 3 -6 0 -12 -8 -15 -9 -4 -12 -14 -9
-29 3 -13 2 -20 -2 -16 -9 9 -37 -40 -30 -52 8 -12 -6 -41 -16 -34 -5 3 -9 2
-10 -3 -2 -27 -10 -48 -28 -79 -12 -20 -18 -40 -15 -45 3 -6 -2 -19 -11 -29
-9 -10 -14 -24 -10 -29 3 -6 3 -11 -2 -11 -14 0 -103 -217 -103 -252 -1 -21
-2 -22 -14 -5 -13 16 -14 16 -20 1 -4 -9 -4 -19 -1 -22 3 -3 5 1 5 9 1 10 4 8
11 -4 14 -23 -6 -51 -20 -29 -6 11 -10 10 -15 -4 -3 -9 -4 -19 -1 -22 3 -3 5
0 5 7 0 7 5 9 10 6 7 -4 7 -11 2 -18 -12 -16 -44 -98 -46 -117 -1 -8 -14 -40
-28 -70 -15 -30 -39 -86 -54 -125 -14 -38 -31 -75 -36 -82 -5 -6 -8 -17 -6
-25 1 -7 -6 -25 -15 -39 -10 -15 -17 -31 -16 -35 1 -5 1 -16 0 -24 -1 -12 -4
-11 -15 3 -14 18 -14 18 -21 -2 -3 -11 -11 -20 -17 -18 -6 1 -13 -5 -15 -13
-4 -13 -3 -13 6 0 6 8 11 11 11 5 0 -5 7 -1 15 9 18 24 19 10 4 -50 -8 -29
-15 -42 -21 -36 -6 6 -6 17 1 31 8 14 8 21 1 21 -5 0 -10 -6 -11 -12 0 -7 -2
-37 -4 -67 -2 -30 -9 -57 -15 -61 -6 -4 -24 -40 -40 -81 -16 -41 -34 -74 -40
-74 -6 0 -15 -7 -20 -15 -8 -12 -10 -12 -10 -1 0 8 -2 12 -5 9 -3 -3 -2 -13 1
-23 6 -16 8 -15 19 5 l12 22 6 -21 c3 -11 1 -19 -4 -15 -5 3 -10 0 -10 -5 -1
-6 -3 -15 -4 -21 -1 -5 -3 -17 -4 -25 0 -8 -6 -15 -12 -15 -7 0 -9 10 -5 28 4
18 3 22 -2 13 -8 -11 -11 -11 -16 0 -3 8 -4 5 -1 -7 7 -26 -4 -56 -16 -48 -5
3 -9 0 -9 -5 0 -6 7 -11 15 -11 8 0 15 5 15 11 0 5 5 7 11 4 16 -10 47 23 60
64 6 20 29 78 50 129 21 50 36 92 33 92 -2 0 2 10 11 23 8 12 16 32 18 42 2
11 15 46 30 78 15 32 27 60 27 63 0 3 6 20 14 37 7 18 35 86 61 152 26 66 56
140 67 164 11 24 17 50 14 58 -3 8 -1 11 4 8 6 -3 10 0 10 7 0 7 7 27 16 43
25 48 43 108 37 119 -3 6 -2 8 2 3 11 -10 36 49 28 69 -3 9 0 14 8 12 10 -2
13 5 11 21 -2 13 1 21 6 17 10 -6 26 23 17 32 -3 3 -5 -1 -5 -8 0 -7 -2 -11
-5 -8 -8 8 6 38 16 33 8 -5 32 65 25 73 -3 2 7 20 20 39 15 23 22 43 18 56 -4
14 -3 17 6 12 9 -5 11 -4 6 3 -4 7 -3 12 3 12 6 0 8 7 5 15 -4 8 -2 15 4 15 6
0 17 20 25 45 9 25 13 45 11 45 -3 0 2 7 10 16 9 8 16 23 16 33 0 10 3 21 7
24 6 7 12 57 6 57 -2 0 -6 -7 -9 -15z"/>
<path d="M6341 9271 c-29 -69 -26 -78 5 -12 13 30 23 56 20 58 -2 2 -13 -19
-25 -46z"/>
<path d="M6296 9165 c-9 -26 -7 -32 5 -12 6 10 9 21 6 23 -2 3 -7 -2 -11 -11z"/>
<path d="M6251 9054 c-12 -31 -20 -58 -18 -60 2 -2 14 21 26 52 13 30 21 57
19 60 -3 2 -15 -21 -27 -52z"/>
<path d="M6196 8915 c-9 -26 -7 -32 5 -12 6 10 9 21 6 23 -2 3 -7 -2 -11 -11z"/>
<path d="M6176 8865 c-9 -26 -7 -32 5 -12 6 10 9 21 6 23 -2 3 -7 -2 -11 -11z"/>
<path d="M6039 8534 c-5 -15 -8 -29 -5 -31 2 -2 8 10 14 26 13 38 5 41 -9 5z"/>
<path d="M5996 8425 c-9 -26 -7 -32 5 -12 6 10 9 21 6 23 -2 3 -7 -2 -11 -11z"/>
<path d="M6099 8313 c-42 -108 -47 -125 -38 -116 12 12 61 143 54 143 -3 0
-10 -12 -16 -27z"/>
<path d="M5953 8315 c-3 -9 -3 -18 -1 -21 3 -3 8 4 11 16 6 23 -1 27 -10 5z"/>
<path d="M5920 8233 c-23 -58 -23 -61 0 -20 12 21 20 43 18 48 -2 6 -10 -7
-18 -28z"/>
<path d="M5886 8155 c-9 -26 -7 -32 5 -12 6 10 9 21 6 23 -2 3 -7 -2 -11 -11z"/>
<path d="M6034 8153 c-3 -10 -10 -26 -15 -36 -9 -16 -5 -39 4 -26 16 24 34 79
27 79 -6 0 -13 -8 -16 -17z"/>
<path d="M6000 8069 c0 -5 5 -7 10 -4 6 3 10 8 10 11 0 2 -4 4 -10 4 -5 0 -10
-5 -10 -11z"/>
<path d="M5991 8034 c0 -11 3 -14 6 -6 3 7 2 16 -1 19 -3 4 -6 -2 -5 -13z"/>
<path d="M5791 7914 c-18 -42 -30 -78 -28 -80 2 -3 12 16 21 41 10 25 22 45
27 45 6 0 7 4 4 10 -3 5 -1 19 5 31 7 11 10 23 7 25 -2 2 -18 -30 -36 -72z"/>
<path d="M5746 7805 c-3 -9 -6 -22 -5 -28 0 -7 5 -1 10 12 5 13 8 26 5 28 -2
2 -6 -3 -10 -12z"/>
<path d="M3430 8370 c-8 -5 -24 -11 -34 -15 -19 -6 -19 -6 1 -27 19 -19 25
-20 52 -8 33 13 39 28 19 48 -14 14 -17 14 -38 2z"/>
<path d="M3424 8274 c3 -9 6 -20 6 -25 0 -5 9 -9 20 -9 24 0 25 4 3 30 -21 24
-38 26 -29 4z"/>
<path d="M3503 8283 c-14 -5 -18 -43 -5 -43 5 0 17 8 26 19 13 14 14 20 4 23
-7 3 -19 3 -25 1z"/>
<path d="M1620 5830 c8 -5 20 -10 25 -10 6 0 3 5 -5 10 -8 5 -19 10 -25 10 -5
0 -3 -5 5 -10z"/>
<path d="M385 2994 c-75 -8 -145 -25 -140 -35 4 -5 1 -9 -4 -9 -6 0 -11 -5
-11 -11 0 -7 7 -8 18 -4 38 16 122 26 209 25 81 -1 119 9 95 24 -12 7 -123 14
-167 10z"/>
<path d="M434 2900 c-12 -5 -25 -13 -28 -19 -11 -17 63 -6 81 12 16 16 16 17
-7 16 -14 0 -35 -4 -46 -9z"/>
<path d="M4105 1675 c-66 -32 -85 -48 -85 -74 0 -30 26 -26 47 7 22 34 39 52
50 52 4 0 19 9 33 20 33 26 16 24 -45 -5z"/>
<path d="M3818 1683 c7 -3 16 -2 19 1 4 3 -2 6 -13 5 -11 0 -14 -3 -6 -6z"/>
<path d="M3820 1609 c0 -5 11 -9 25 -9 14 0 25 2 25 4 0 2 -11 6 -25 8 -14 3
-25 1 -25 -3z"/>
<path d="M2480 1440 c0 -25 4 -30 25 -30 27 0 31 10 15 41 -17 30 -40 24 -40
-11z"/>
<path d="M4361 1408 c0 -10 -8 -18 -17 -18 -12 0 -15 -6 -11 -21 3 -12 3 -18
0 -15 -8 8 -33 -21 -33 -39 0 -12 7 -15 27 -13 21 2 29 10 35 37 5 18 7 45 5
60 -2 14 -5 18 -6 9z"/>
<path d="M4465 1400 c-3 -5 -1 -10 4 -10 6 0 11 5 11 10 0 6 -2 10 -4 10 -3 0
-8 -4 -11 -10z"/>
<path d="M4661 1290 c-12 -22 -25 -40 -29 -40 -18 -1 -67 -57 -64 -72 2 -10
-1 -18 -7 -18 -6 0 -11 -7 -11 -15 0 -14 -86 -105 -100 -105 -3 0 -11 -13 -17
-29 l-11 -30 -98 -3 c-55 -2 -102 1 -106 6 -6 9 -53 2 -193 -28 -38 -8 -96
-15 -127 -16 -32 0 -58 -4 -58 -10 0 -5 -11 -10 -25 -10 -13 0 -49 -9 -80 -21
-42 -16 -55 -25 -55 -41 0 -11 -7 -26 -17 -33 -11 -8 -14 -19 -9 -31 6 -16 9
-16 16 -4 8 12 10 10 10 -8 l0 -23 30 21 c22 16 41 20 77 18 48 -3 48 -3 51
-40 3 -36 25 -53 34 -27 2 7 26 11 60 10 31 0 72 6 92 14 19 8 48 15 63 15 15
0 37 7 47 15 14 10 45 15 99 15 67 0 80 -3 83 -18 4 -14 40 -43 77 -60 4 -2 7
8 7 22 0 14 5 26 12 26 14 0 101 89 118 120 6 11 33 29 60 41 49 21 57 35 31
55 -10 8 -11 15 -3 31 6 11 8 23 5 27 -3 3 -1 6 6 6 6 0 17 12 24 28 7 15 20
38 29 52 10 14 20 52 24 85 3 33 8 63 10 67 6 9 -14 48 -25 48 -4 0 -17 -18
-30 -40z"/>
<path d="M3482 1299 c2 -6 8 -10 13 -10 5 0 11 4 13 10 2 6 -4 11 -13 11 -9 0
-15 -5 -13 -11z"/>
<path d="M3373 1273 c-7 -3 -13 -11 -13 -19 0 -10 12 -14 40 -14 22 0 40 4 40
9 0 12 -51 29 -67 24z"/>
<path d="M4420 1100 c0 -5 5 -10 10 -10 6 0 10 5 10 10 0 6 -4 10 -10 10 -5 0
-10 -4 -10 -10z"/>
<path d="M3225 931 c50 -6 50 -6 20 -17 l-30 -11 39 -8 c21 -4 73 -5 115 -2
50 4 68 3 54 -3 -13 -5 -23 -12 -23 -14 0 -8 114 4 123 13 4 4 -7 6 -25 4 -25
-3 -29 -2 -18 6 8 5 12 12 10 14 -11 11 -128 22 -167 17 -24 -4 -43 -3 -43 2
0 4 -24 7 -52 6 l-53 -1 50 -6z m118 -28 c-13 -2 -33 -2 -45 0 -13 2 -3 4 22
4 25 0 35 -2 23 -4z"/>
<path d="M4181 681 c-7 -5 -21 -6 -31 -4 -10 3 -20 0 -24 -5 -7 -12 20 -35 47
-39 26 -4 47 -21 57 -48 8 -19 9 -19 9 3 1 25 11 28 29 10 9 -9 12 -7 12 13
-1 30 -17 51 -53 67 -33 14 -29 14 -46 3z"/>
<path d="M4293 543 c-18 -9 -33 -20 -33 -24 0 -4 20 -15 44 -25 25 -11 47 -27
50 -37 6 -24 55 -19 70 7 9 15 7 20 -9 30 -11 6 -31 23 -46 39 -31 31 -33 31
-76 10z"/>
<path d="M3485 490 c-3 -5 1 -10 10 -10 9 0 13 5 10 10 -3 6 -8 10 -10 10 -2
0 -7 -4 -10 -10z"/>
<path d="M3981 441 c-10 -6 -10 -10 -1 -16 13 -8 24 -1 19 14 -3 6 -10 7 -18
2z"/>
<path d="M4320 417 c0 -14 -10 -17 -55 -17 -30 0 -55 -3 -55 -7 0 -5 29 -8 64
-8 35 0 60 3 54 6 -6 4 -5 8 3 12 11 4 12 7 2 18 -11 11 -13 10 -13 -4z"/>
<path d="M5724 13414 c3 -9 6 -23 6 -32 0 -14 2 -14 9 -3 10 16 3 51 -11 51
-6 0 -7 -7 -4 -16z"/>
<path d="M5663 13365 c0 -27 2 -38 4 -22 2 15 2 37 0 50 -2 12 -4 0 -4 -28z"/>
<path d="M5922 13360 c0 -22 4 -43 9 -46 5 -3 9 15 9 40 0 25 -4 46 -9 46 -6
0 -9 -18 -9 -40z"/>
<path d="M5695 13341 c-8 -14 10 -22 30 -15 13 5 14 8 3 15 -17 11 -26 11 -33
0z"/>
<path d="M5500 13271 c0 -22 5 -43 10 -46 6 -4 10 12 10 39 0 25 -4 46 -10 46
-5 0 -10 -18 -10 -39z"/>
<path d="M5473 13255 c0 -27 2 -38 4 -22 2 15 2 37 0 50 -2 12 -4 0 -4 -28z"/>
<path d="M6111 13263 c7 -10 15 -20 16 -22 2 -2 3 5 3 17 0 14 -6 22 -16 22
-14 0 -15 -3 -3 -17z"/>
<path d="M6075 13190 c3 -5 12 -7 20 -3 21 7 19 13 -6 13 -11 0 -18 -4 -14
-10z"/>
<path d="M5416 13141 c-8 -12 3 -41 15 -41 5 0 9 11 9 25 0 25 -14 34 -24 16z"/>
<path d="M5361 13098 c1 -7 5 -24 9 -38 8 -24 8 -24 9 7 1 17 -3 35 -9 38 -5
3 -10 0 -9 -7z"/>
<path d="M5510 13096 c0 -8 -8 -17 -17 -19 -14 -4 -12 -5 5 -6 16 -1 22 5 22
19 0 11 -2 20 -5 20 -3 0 -5 -6 -5 -14z"/>
<path d="M5558 13065 c17 -50 59 -95 88 -95 39 0 36 18 -11 65 -49 50 -50 70
-4 60 18 -4 29 -3 29 4 0 8 -21 11 -58 9 l-58 -2 14 -41z"/>
<path d="M5433 13092 c-23 -3 -29 -18 -15 -38 8 -12 52 -1 52 13 0 18 -16 28
-37 25z"/>
<path d="M5292 13055 c-1 -21 3 -33 8 -30 12 8 13 65 2 65 -5 0 -9 -16 -10
-35z"/>
<path d="M6179 13087 c-1 -4 -1 -16 -1 -27 0 -40 2 -50 12 -50 6 0 8 16 6 36
-4 33 -14 57 -17 41z"/>
<path d="M5320 13065 c0 -9 4 -25 10 -35 8 -15 4 -22 -26 -41 -34 -21 -36 -24
-31 -65 2 -24 1 -44 -4 -46 -5 -2 -5 -16 0 -33 l9 -30 1 33 c1 20 6 32 15 32
8 0 16 6 19 14 3 8 14 12 24 10 18 -5 35 21 48 77 6 22 3 27 -19 33 -19 5 -26
13 -26 31 0 13 -4 27 -10 30 -5 3 -10 -1 -10 -10z"/>
<path d="M5082 13022 c1 -4 -6 -23 -15 -43 -14 -27 -17 -56 -15 -119 4 -117
23 -116 32 2 4 51 11 95 16 96 16 6 11 59 -5 66 -8 3 -14 2 -13 -2z"/>
<path d="M5801 13019 c-13 -5 -21 -12 -18 -15 3 -3 18 1 34 10 31 17 21 20
-16 5z"/>
<path d="M5745 12990 c-3 -6 1 -7 9 -4 18 7 21 14 7 14 -6 0 -13 -4 -16 -10z"/>
<path d="M5684 12959 c-3 -6 -18 -8 -33 -5 -19 5 -22 4 -11 -3 12 -8 7 -18
-30 -54 -25 -25 -72 -74 -104 -111 -41 -45 -63 -63 -70 -56 -5 5 -17 10 -26
10 -29 0 -85 37 -90 60 -8 36 -29 36 -36 1 -4 -16 -15 -38 -25 -47 -41 -37 -6
-48 42 -13 32 22 39 17 12 -9 -15 -16 -13 -18 37 -29 39 -9 59 -9 74 -1 19 10
20 10 7 -8 -8 -10 -26 -29 -40 -42 -21 -19 -22 -21 -6 -16 11 4 36 22 57 42
32 30 40 33 65 25 15 -5 37 -23 48 -40 l21 -30 12 26 c17 35 15 48 -9 65 -21
14 -21 14 11 47 19 21 27 35 19 38 -6 2 -16 -3 -20 -11 -5 -9 -21 -23 -35 -33
-22 -14 -18 -6 19 41 84 106 97 120 105 108 7 -11 62 -11 95 0 9 3 24 8 32 11
8 2 15 9 15 15 0 6 -5 8 -10 5 -6 -4 -17 -1 -25 5 -8 7 -26 9 -39 6 -14 -3
-28 -2 -31 4 -8 13 -22 13 -31 -1z"/>
<path d="M6706 12923 c-4 -13 -4 -33 0 -45 10 -34 25 2 15 38 -7 28 -8 28 -15
7z"/>
<path d="M5220 12846 c0 -8 5 -18 10 -21 6 -3 10 1 10 9 0 8 -4 18 -10 21 -5
3 -10 -1 -10 -9z"/>
<path d="M6090 12825 c0 -17 -6 -25 -17 -26 -15 0 -15 -2 2 -9 32 -14 35 -12
35 25 0 19 -4 35 -10 35 -5 0 -10 -11 -10 -25z"/>
<path d="M5724 12809 c-3 -6 -18 -9 -31 -6 -19 3 -36 -4 -65 -31 -51 -46 -35
-52 28 -12 38 24 57 30 82 26 27 -4 32 -2 32 15 0 21 -34 27 -46 8z"/>
<path d="M5031 12784 c0 -11 3 -14 6 -6 3 7 2 16 -1 19 -3 4 -6 -2 -5 -13z"/>
<path d="M5070 12718 c1 -18 7 -51 15 -73 19 -52 19 -60 -2 -44 -14 12 -16 12
-12 0 7 -21 21 -23 44 -5 17 13 18 16 5 24 -12 8 -13 11 -1 19 8 5 9 11 3 14
-5 4 -15 27 -22 52 -15 53 -30 59 -30 13z"/>
<path d="M5968 12699 c-21 -12 -24 -49 -5 -49 14 0 47 35 47 50 0 13 -20 12
-42 -1z"/>
<path d="M5790 12650 c-8 -16 -8 -20 4 -20 16 0 29 27 16 35 -5 3 -14 -4 -20
-15z"/>
<path d="M5285 12650 c3 -5 11 -10 16 -10 6 0 7 5 4 10 -3 6 -11 10 -16 10 -6
0 -7 -4 -4 -10z"/>
<path d="M5888 12654 c-14 -14 -8 -34 10 -34 10 0 23 -5 30 -12 9 -9 12 -9 12
1 0 7 -9 15 -19 18 -11 3 -21 12 -23 20 -2 8 -6 11 -10 7z"/>
<path d="M5280 12610 c0 -5 5 -10 11 -10 5 0 7 5 4 10 -3 6 -8 10 -11 10 -2 0
-4 -4 -4 -10z"/>
<path d="M5445 12600 c-3 -5 3 -10 14 -10 12 0 21 5 21 10 0 6 -6 10 -14 10
-8 0 -18 -4 -21 -10z"/>
<path d="M5126 12575 c-17 -25 -16 -25 4 -13 11 7 20 18 20 25 0 19 -6 16 -24
-12z"/>
<path d="M5582 12560 c0 -14 2 -19 5 -12 2 6 2 18 0 25 -3 6 -5 1 -5 -13z"/>
<path d="M5470 12560 c0 -5 5 -10 10 -10 6 0 10 5 10 10 0 6 -4 10 -10 10 -5
0 -10 -4 -10 -10z"/>
<path d="M5140 12551 c0 -5 5 -13 10 -16 6 -3 10 -2 10 4 0 5 -4 13 -10 16 -5
3 -10 2 -10 -4z"/>
<path d="M5654 12526 c-8 -22 -1 -49 14 -52 7 -1 8 0 3 2 -6 3 -8 19 -4 35 6
30 -3 40 -13 15z"/>
<path d="M5692 12510 c14 -22 24 -19 15 5 -4 8 -11 15 -17 15 -6 0 -6 -7 2
-20z"/>
<path d="M5260 12449 c0 -5 6 -9 13 -9 16 0 59 -35 52 -42 -2 -2 11 -4 30 -5
25 -1 32 3 28 13 -3 8 -13 14 -22 14 -9 0 -22 5 -27 10 -15 15 -74 30 -74 19z"/>
<path d="M5630 12426 c0 -2 7 -7 16 -10 8 -3 12 -2 9 4 -6 10 -25 14 -25 6z"/>
<path d="M5410 12360 c19 -13 30 -13 30 0 0 6 -10 10 -22 10 -19 0 -20 -2 -8
-10z"/>
<path d="M1550 12113 c-3 -23 -2 -39 3 -34 5 5 7 24 5 42 -3 33 -4 33 -8 -8z"/>
<path d="M1532 11940 c0 -14 2 -19 5 -12 2 6 2 18 0 25 -3 6 -5 1 -5 -13z"/>
<path d="M1503 11640 c0 -25 2 -35 4 -22 2 12 2 32 0 45 -2 12 -4 2 -4 -23z"/>
<path d="M6670 11465 c-7 -8 -8 -15 -2 -15 5 0 15 7 22 15 7 8 8 15 2 15 -5 0
-15 -7 -22 -15z"/>
<path d="M1466 11289 c-3 -17 -5 -46 -5 -63 1 -18 5 -7 10 28 9 63 6 88 -5 35z"/>
<path d="M1441 11054 c0 -11 3 -14 6 -6 3 7 2 16 -1 19 -3 4 -6 -2 -5 -13z"/>
<path d="M1432 10975 c0 -16 2 -22 5 -12 2 9 2 23 0 30 -3 6 -5 -1 -5 -18z"/>
<path d="M1422 10860 c0 -19 2 -27 5 -17 2 9 2 25 0 35 -3 9 -5 1 -5 -18z"/>
<path d="M1412 10790 c0 -19 2 -27 5 -17 2 9 2 25 0 35 -3 9 -5 1 -5 -18z"/>
<path d="M1402 10650 c0 -19 2 -27 5 -17 2 9 2 25 0 35 -3 9 -5 1 -5 -18z"/>
<path d="M1392 10580 c0 -14 2 -19 5 -12 2 6 2 18 0 25 -3 6 -5 1 -5 -13z"/>
<path d="M1392 10530 c0 -14 2 -19 5 -12 2 6 2 18 0 25 -3 6 -5 1 -5 -13z"/>
<path d="M1382 10460 c0 -14 2 -19 5 -12 2 6 2 18 0 25 -3 6 -5 1 -5 -13z"/>
<path d="M1406 10455 c-15 -57 -17 -62 -25 -42 -6 16 -43 -282 -40 -323 0 -8
11 56 24 142 14 92 30 167 40 182 9 14 15 35 13 48 -4 21 -5 20 -12 -7z"/>
<path d="M6223 10113 c-18 -7 -16 -23 2 -23 8 0 15 7 15 15 0 8 -1 15 -2 14
-2 0 -9 -3 -15 -6z"/>
<path d="M1337 10047 c-4 -10 -7 -26 -7 -35 1 -15 2 -15 11 1 6 10 9 25 7 35
-3 16 -4 15 -11 -1z"/>
<path d="M1325 9978 c-2 -7 -6 -49 -9 -93 -3 -44 -8 -107 -10 -140 -5 -58 -5
-57 8 15 16 89 29 230 21 230 -3 0 -7 -6 -10 -12z"/>
<path d="M1293 9620 c0 -25 2 -35 4 -22 2 12 2 32 0 45 -2 12 -4 2 -4 -23z"/>
<path d="M1282 9530 c0 -19 2 -27 5 -17 2 9 2 25 0 35 -3 9 -5 1 -5 -18z"/>
<path d="M1238 9141 c-5 -18 -8 -54 -7 -80 l1 -46 9 45 c5 25 8 61 7 80 l-3
35 -7 -34z"/>
<path d="M1217 8951 c-5 -35 -6 -65 -3 -68 8 -8 18 60 14 98 -2 26 -5 20 -11
-30z"/>
<path d="M1203 8790 c0 -25 2 -35 4 -22 2 12 2 32 0 45 -2 12 -4 2 -4 -23z"/>
<path d="M1196 8705 c-3 -9 -6 -26 -5 -38 1 -16 4 -12 10 12 10 34 6 55 -5 26z"/>
<path d="M1181 8574 c0 -11 3 -14 6 -6 3 7 2 16 -1 19 -3 4 -6 -2 -5 -13z"/>
<path d="M1169 8455 c-5 -50 -4 -63 7 -53 3 3 4 28 2 54 l-3 49 -6 -50z"/>
<path d="M1161 8374 c0 -11 3 -14 6 -6 3 7 2 16 -1 19 -3 4 -6 -2 -5 -13z"/>
<path d="M1152 8280 c0 -19 2 -27 5 -17 2 9 2 25 0 35 -3 9 -5 1 -5 -18z"/>
<path d="M1136 8164 c-4 -37 -4 -69 -1 -72 3 -3 5 4 5 16 0 11 4 24 10 27 5 3
7 20 3 37 -5 23 -3 29 6 23 9 -5 12 -2 9 10 -1 10 -8 20 -14 22 -7 2 -14 -21
-18 -63z"/>
<path d="M2567 23 c-18 -17 -1 -23 68 -23 46 0 75 4 75 10 0 7 -13 8 -35 4
-23 -4 -35 -2 -35 5 0 12 -62 16 -73 4z"/>
</g>
</svg>
